<svg width="20" height="16" viewBox="0 0 20 16" fill="none" xmlns="http://www.w3.org/2000/svg">
<path d="M13.174 6.56005C13.65 6.43405 14.14 6.37805 14.644 6.37805C16.814 6.37805 17.976 7.72205 17.976 9.51405C17.976 11.698 16.338 13.126 14.252 13.126C13.02 13.126 11.984 12.622 11.354 12.02L12.04 11.082C12.656 11.6 13.468 11.978 14.308 11.978C15.722 11.978 16.744 11.096 16.744 9.58405C16.744 8.24005 15.876 7.45605 14.406 7.45605C13.86 7.45605 13.328 7.58205 12.726 7.79205L11.9 7.55405L12.74 2.69604H17.654V3.87205H13.636L13.174 6.56005Z" fill="#1B1B20"/>
<path d="M9.79016 12.9999H2.90216V12.1039L6.44416 8.70191C7.52216 7.55391 8.30616 6.67191 8.30616 5.46791C8.26416 4.23591 7.48016 3.66191 6.41616 3.66191C5.24016 3.66191 4.37216 4.50191 4.37216 5.67791L3.11216 5.46791C3.37816 3.57791 4.73616 2.55591 6.48616 2.55591C8.23616 2.55591 9.59416 3.61991 9.59416 5.43991C9.59416 6.96591 8.61416 8.02991 7.45216 9.19191L4.58216 12.0339C4.97416 11.9219 5.39416 11.8659 5.74416 11.8659H9.79016V12.9999Z" fill="#1B1B20"/>
<path fill-rule="evenodd" clip-rule="evenodd" d="M17.654 2.69604H12.74L11.9 7.55405L12.726 7.79205C12.7888 7.77013 12.8509 7.74912 12.9123 7.72908C13.0943 7.66967 13.2705 7.61872 13.4433 7.57748C13.6118 7.53726 13.7771 7.50627 13.9415 7.48567C14.0965 7.46624 14.2507 7.45605 14.406 7.45605C14.4872 7.45605 14.5665 7.45844 14.644 7.46318C15.9447 7.54285 16.7151 8.286 16.7432 9.51405C16.7437 9.53721 16.744 9.56054 16.744 9.58405C16.744 11.096 15.722 11.978 14.308 11.978C14.2893 11.978 14.2707 11.9779 14.252 11.9775C13.6257 11.965 13.0171 11.7447 12.4961 11.4156C12.3789 11.3416 12.2661 11.262 12.1585 11.1781C12.1183 11.1467 12.0788 11.1146 12.04 11.082L11.354 12.02C11.5644 12.2211 11.82 12.4112 12.1131 12.5752C12.4146 12.744 12.7557 12.8852 13.128 12.9823C13.4776 13.0736 13.8546 13.126 14.252 13.126C14.2707 13.126 14.2894 13.1259 14.308 13.1257C16.345 13.1007 17.9411 11.7091 17.9754 9.58405C17.9758 9.5608 17.976 9.53747 17.976 9.51405C17.976 7.89035 17.022 6.63446 15.2286 6.41287C15.0427 6.3899 14.8478 6.37805 14.644 6.37805C14.5643 6.37805 14.485 6.37945 14.406 6.3823C14.3133 6.38565 14.2212 6.391 14.1295 6.39844C13.805 6.42479 13.4865 6.47733 13.174 6.56005L13.636 3.87205H17.654V2.69604ZM18.5502 5.87205H19.654V0.696045H11.0561L9.62383 8.97957L10.6767 9.28293L10.6754 9.29032L10.6894 9.28661L10.8429 9.33084L8.98883 11.866H9.79016V13H9.48463L9.97228 13.466C10.9595 14.4094 12.485 15.126 14.252 15.126C17.3241 15.126 19.976 12.9175 19.976 9.51405C19.976 8.18941 19.5414 6.86867 18.5502 5.87205ZM13.4599 9.65464C13.7716 9.87883 14.0846 9.97805 14.308 9.97805C14.4546 9.97805 14.5513 9.95518 14.6064 9.93531C14.6593 9.91621 14.678 9.89878 14.6808 9.89614C14.6828 9.89427 14.6924 9.88538 14.7048 9.85439C14.7187 9.81956 14.744 9.73592 14.744 9.58405C14.744 9.5458 14.7421 9.51512 14.7395 9.49121C14.6789 9.4746 14.5734 9.45605 14.406 9.45605C14.1875 9.45605 13.913 9.50154 13.4599 9.65464Z" fill="#FFFDF0"/>
<path fill-rule="evenodd" clip-rule="evenodd" d="M11.7902 14.9999H0.902156V11.2518L4.5615 7.73705L0.859911 7.12012L1.13167 5.18917C1.32569 3.81064 1.94684 2.61092 2.96408 1.76522C3.9699 0.929026 5.22122 0.555908 6.48616 0.555908C7.75627 0.555908 9.03318 0.943684 10.021 1.81697C11.0374 2.71547 11.5942 3.99618 11.5942 5.43991C11.5942 7.39718 10.558 8.81976 9.58795 9.86591H11.7902V11.4235L11.354 12.0199C11.483 12.1431 11.629 12.2623 11.7902 12.3738V14.9999ZM2.90216 12.1039V12.9999H9.79016V11.8659H5.74416C5.39416 11.8659 4.97416 11.9219 4.58216 12.0339L7.45216 9.19191C8.60704 8.03703 9.58214 6.97895 9.59405 5.46791C9.59412 5.45859 9.59416 5.44926 9.59416 5.43991C9.59416 5.4346 9.59414 5.4293 9.59412 5.424C9.58623 3.61371 8.23105 2.55591 6.48616 2.55591C6.46275 2.55591 6.43942 2.55609 6.41616 2.55646C5.41886 2.57211 4.5535 2.92307 3.95203 3.5803C3.56038 4.00826 3.28062 4.56609 3.14918 5.24576C3.13513 5.31842 3.12277 5.39247 3.11216 5.46791L4.37216 5.67791C4.37216 5.667 4.37223 5.65612 4.37238 5.64527C4.37577 5.39823 4.41764 5.16639 4.49273 4.95449C4.76986 4.17235 5.49943 3.66191 6.41616 3.66191C6.43963 3.66191 6.46296 3.66219 6.48616 3.66275C7.50639 3.68736 8.25339 4.25417 8.30507 5.43991C8.30547 5.4492 8.30584 5.45854 8.30616 5.46791C8.30616 6.57523 7.643 7.41019 6.69789 8.43021C6.6967 8.4315 6.69551 8.43278 6.69432 8.43407C6.61293 8.52188 6.52946 8.61106 6.44416 8.70191L2.90216 12.1039Z" fill="#FFFDF0"/>
</svg>
