<svg width="52" height="52" viewBox="0 0 52 52" fill="none" xmlns="http://www.w3.org/2000/svg">
<rect width="52" height="52" rx="6" fill="#34AB96"/>
<g clip-path="url(#clip0_3359_32572)">
<path d="M17 18.5C17 16.5109 17.7902 14.6032 19.1967 13.1967C20.6032 11.7902 22.5109 11 24.5 11C26.4891 11 28.3968 11.7902 29.8033 13.1967C31.2098 14.6032 32 16.5109 32 18.5C32 20.4891 31.2098 22.3968 29.8033 23.8033C28.3968 25.2098 26.4891 26 24.5 26C22.5109 26 20.6032 25.2098 19.1967 23.8033C17.7902 22.3968 17 20.4891 17 18.5ZM15.233 30.008C17.6375 28.541 20.9075 27.5 24.5 27.5C25.1705 27.5 25.8305 27.536 26.474 27.605C26.7317 27.6326 26.9778 27.7266 27.1883 27.8776C27.3989 28.0286 27.5667 28.2317 27.6755 28.4669C27.7843 28.7021 27.8302 28.9614 27.8089 29.2197C27.7876 29.4779 27.6998 29.7263 27.554 29.9405C26.5379 31.4318 25.9962 33.1954 26 35C26 36.38 26.3105 37.685 26.8625 38.8505C26.9701 39.0776 27.0189 39.328 27.0044 39.5788C26.99 39.8296 26.9128 40.0728 26.7799 40.286C26.647 40.4993 26.4627 40.6757 26.2439 40.7991C26.025 40.9226 25.7787 40.989 25.5275 40.9925L24.5 41C21.1565 41 17.9975 40.79 15.6305 40.163C14.453 39.851 13.3445 39.404 12.5045 38.729C11.615 38.015 11 37.0175 11 35.75C11 34.5695 11.537 33.4655 12.266 32.5415C13.007 31.604 14.0315 30.7415 15.233 30.0065V30.008ZM35 29C35.3978 29 35.7794 29.158 36.0607 29.4393C36.342 29.7206 36.5 30.1022 36.5 30.5V33.5H39.5C39.8978 33.5 40.2794 33.658 40.5607 33.9393C40.842 34.2206 41 34.6022 41 35C41 35.3978 40.842 35.7794 40.5607 36.0607C40.2794 36.342 39.8978 36.5 39.5 36.5H36.5V39.5C36.5 39.8978 36.342 40.2794 36.0607 40.5607C35.7794 40.842 35.3978 41 35 41C34.6022 41 34.2206 40.842 33.9393 40.5607C33.658 40.2794 33.5 39.8978 33.5 39.5V36.5H30.5C30.1022 36.5 29.7206 36.342 29.4393 36.0607C29.158 35.7794 29 35.3978 29 35C29 34.6022 29.158 34.2206 29.4393 33.9393C29.7206 33.658 30.1022 33.5 30.5 33.5H33.5V30.5C33.5 30.1022 33.658 29.7206 33.9393 29.4393C34.2206 29.158 34.6022 29 35 29Z" fill="#FFFDF0"/>
</g>
<defs>
<clipPath id="clip0_3359_32572">
<rect width="36" height="36" fill="white" transform="translate(8 8)"/>
</clipPath>
</defs>
</svg>
