<svg width="52" height="52" viewBox="0 0 52 52" fill="none" xmlns="http://www.w3.org/2000/svg">
<rect width="52" height="52" rx="6" fill="#A2D8CF"/>
<g clip-path="url(#clip0_3359_32578)">
<path fill-rule="evenodd" clip-rule="evenodd" d="M24.5 11C22.5109 11 20.6032 11.7902 19.1967 13.1967C17.7902 14.6032 17 16.5109 17 18.5C17 20.4891 17.7902 22.3968 19.1967 23.8033C20.6032 25.2098 22.5109 26 24.5 26C26.4891 26 28.3968 25.2098 29.8033 23.8033C31.2098 22.3968 32 20.4891 32 18.5C32 16.5109 31.2098 14.6032 29.8033 13.1967C28.3968 11.7902 26.4891 11 24.5 11ZM20 18.5C20 17.9091 20.1164 17.3239 20.3425 16.7779C20.5687 16.232 20.9002 15.7359 21.318 15.318C21.7359 14.9002 22.232 14.5687 22.7779 14.3425C23.3239 14.1164 23.9091 14 24.5 14C25.0909 14 25.6761 14.1164 26.2221 14.3425C26.768 14.5687 27.2641 14.9002 27.682 15.318C28.0998 15.7359 28.4313 16.232 28.6575 16.7779C28.8836 17.3239 29 17.9091 29 18.5C29 19.6935 28.5259 20.8381 27.682 21.682C26.8381 22.5259 25.6935 23 24.5 23C23.3065 23 22.1619 22.5259 21.318 21.682C20.4741 20.8381 20 19.6935 20 18.5ZM14 35.75C14 35.48 14.135 35.0165 14.6195 34.4015C15.0935 33.8015 15.8255 33.1595 16.796 32.5685C18.7355 31.3835 21.4655 30.5 24.5 30.5C25.0625 30.5 25.616 30.53 26.1575 30.5885C26.5533 30.6305 26.9496 30.5135 27.2592 30.2633C27.5688 30.013 27.7663 29.6501 27.8083 29.2542C27.8502 28.8584 27.7332 28.4621 27.483 28.1525C27.2328 27.843 26.8698 27.6455 26.474 27.6035C25.8182 27.5354 25.1593 27.5009 24.5 27.5C20.9075 27.5 17.6375 28.541 15.233 30.008C14.033 30.74 13.007 31.604 12.266 32.543C11.537 33.464 11 34.5695 11 35.75C11 37.0175 11.6165 38.0165 12.5045 38.729C13.3445 39.404 14.453 39.851 15.6305 40.163C17.9975 40.7885 21.1565 41 24.5 41L25.5275 40.9925C25.7245 40.9898 25.919 40.9484 26.1 40.8706C26.281 40.7927 26.4448 40.68 26.5822 40.5388C26.7196 40.3977 26.8279 40.2308 26.9008 40.0478C26.9737 39.8648 27.0099 39.6692 27.0072 39.4723C27.0046 39.2753 26.9632 39.0807 26.8853 38.8998C26.8075 38.7188 26.6948 38.5549 26.5536 38.4175C26.4124 38.2801 26.2456 38.1719 26.0626 38.0989C25.8796 38.026 25.684 37.9898 25.487 37.9925L24.5 38C21.215 38 18.3755 37.7855 16.4 37.262C15.4055 36.9995 14.756 36.689 14.3825 36.389C14.0555 36.1265 14 35.933 14 35.75Z" fill="#25796B"/>
<path fill-rule="evenodd" clip-rule="evenodd" d="M43.3185 27.8702C43.9425 28.4151 44.0066 29.3627 43.4617 29.9867L35.7915 38.7702C35.5165 39.0851 35.1225 39.2709 34.7046 39.2829C34.2867 39.2949 33.8828 39.1319 33.5902 38.8333L29.4286 34.5859C28.8488 33.9942 28.8585 33.0445 29.4502 32.4647C30.042 31.8849 30.9916 31.8946 31.5714 32.4863L34.5983 35.5756L41.202 28.0134C41.7469 27.3894 42.6945 27.3253 43.3185 27.8702Z" fill="#25796B"/>
</g>
<defs>
<clipPath id="clip0_3359_32578">
<rect width="36" height="36" fill="white" transform="translate(8 8)"/>
</clipPath>
</defs>
</svg>
