<svg width="169" height="80" viewBox="0 0 169 80" fill="none" xmlns="http://www.w3.org/2000/svg">
<path d="M54.91 46.9859C53.12 46.9859 51.73 45.8759 51.73 43.6659V38.7359H52.73V43.5959C52.73 45.3259 53.63 46.0559 54.91 46.0559C56.19 46.0559 57.08 45.3259 57.08 43.5959V38.7359H58.09V43.6659C58.09 45.8759 56.68 46.9859 54.91 46.9859ZM62.4425 40.8059C63.6425 40.8059 64.8525 41.8159 64.8525 43.5659V44.2659C64.8525 46.0159 63.6425 47.0159 62.4425 47.0159C61.6625 47.0159 60.9525 46.6759 60.4925 46.0359V48.5359H59.4925V40.9559H60.4325L60.4825 41.8059C60.9325 41.1559 61.6525 40.8059 62.4425 40.8059ZM63.8425 44.2359V43.5959C63.8425 42.3759 63.0925 41.7259 62.1625 41.7259C61.2425 41.7259 60.4925 42.3759 60.4925 43.5959V44.2359C60.4925 45.4559 61.2325 46.1059 62.1625 46.1059C63.0925 46.1059 63.8425 45.4559 63.8425 44.2359ZM70.1573 41.7759V38.7359H71.1673V46.8359H70.2273L70.1773 45.9959C69.7273 46.6359 69.0073 46.9859 68.2173 46.9859C66.9873 46.9859 65.8073 45.9859 65.8073 44.2459V43.5459C65.8073 41.8159 66.9873 40.8059 68.2173 40.8059C68.9973 40.8059 69.7073 41.1459 70.1573 41.7759ZM68.4973 46.0659C69.4073 46.0659 70.1573 45.4259 70.1573 44.2159V43.5759C70.1573 42.3659 69.4173 41.7259 68.4973 41.7259C67.5573 41.7259 66.8073 42.3659 66.8073 43.5759V44.2159C66.8073 45.4259 67.5573 46.0659 68.4973 46.0659ZM75.0475 40.8059C76.4075 40.8059 77.3975 41.6459 77.3975 43.0859V46.8359H76.4775L76.4275 46.0659C76.1075 46.6259 75.4975 46.9859 74.7075 46.9859H74.3175C73.2275 46.9859 72.4175 46.2159 72.4175 45.1259C72.4175 44.0759 73.2075 43.3259 74.6475 43.3259H76.4075V43.1359C76.4075 42.2959 75.9275 41.7259 74.9775 41.7259C74.3075 41.7259 73.8175 42.0359 73.5475 42.5559L72.6475 42.1559C73.0675 41.3759 73.9575 40.8059 75.0475 40.8059ZM74.5075 46.0659H74.8875C75.6275 46.0659 76.3175 45.6259 76.4075 44.8959V44.2059H74.6875C73.8175 44.2059 73.4075 44.5759 73.4075 45.1359C73.4075 45.7059 73.8475 46.0659 74.5075 46.0659ZM81.7436 45.8559L81.9936 46.6859C81.6336 46.8959 81.1636 46.9859 80.7536 46.9859C79.8436 46.9859 79.2436 46.4959 79.2436 45.4859V41.8759H78.1836V40.9559H79.2436V39.3359H80.2536V40.9559H81.7736V41.8759H80.2536V45.3659C80.2536 45.9359 80.5036 46.0659 80.8936 46.0659C81.2136 46.0659 81.4536 45.9859 81.7436 45.8559ZM87.9045 43.6159V44.2559H83.5745C83.5945 45.4659 84.3645 46.0959 85.2645 46.0959C85.9745 46.0959 86.6245 45.7459 86.8945 45.0659L87.8145 45.3659C87.4445 46.4359 86.4045 46.9859 85.2645 46.9859C83.8445 46.9859 82.5945 46.0459 82.5945 44.2259V43.5559C82.5945 41.7459 83.8245 40.8059 85.2445 40.8059C86.6945 40.8059 87.9045 41.7559 87.9045 43.6159ZM83.5845 43.4059H86.9045C86.9045 42.3659 86.1945 41.7059 85.2445 41.7059C84.3745 41.7059 83.6445 42.2859 83.5845 43.4059ZM91.203 44.8859L92.063 44.4859C92.473 45.5059 93.353 46.0759 94.503 46.0759C95.643 46.0759 96.413 45.6059 96.413 44.7759C96.413 43.9659 95.843 43.6159 95.023 43.3859L93.813 43.0459C92.743 42.7359 91.643 42.1359 91.643 40.7859C91.643 39.4259 92.833 38.5859 94.363 38.5859C95.873 38.5859 96.923 39.4359 97.353 40.5359L96.493 40.9459C96.123 40.0759 95.403 39.4959 94.363 39.4959C93.323 39.4959 92.643 39.9859 92.643 40.7859C92.643 41.5959 93.273 41.9259 94.033 42.1459L95.223 42.4859C96.303 42.7859 97.403 43.3959 97.403 44.7759C97.403 46.1559 96.133 46.9859 94.503 46.9859C92.893 46.9859 91.693 46.2159 91.203 44.8859ZM101.066 46.9859C99.6359 46.9859 98.3659 46.0659 98.3659 44.2959V43.4959C98.3659 41.7359 99.6359 40.8059 101.066 40.8059C102.506 40.8059 103.776 41.7359 103.776 43.4959V44.2959C103.776 46.0659 102.506 46.9859 101.066 46.9859ZM101.066 46.0659C101.976 46.0659 102.766 45.4459 102.766 44.2659V43.5259C102.766 42.3459 101.976 41.7259 101.066 41.7259C100.146 41.7259 99.3659 42.3459 99.3659 43.5259V44.2659C99.3659 45.4459 100.156 46.0659 101.066 46.0659ZM107.531 46.9859C106.101 46.9859 104.831 46.0659 104.831 44.2959V43.4959C104.831 41.7359 106.101 40.8059 107.531 40.8059C108.971 40.8059 110.241 41.7359 110.241 43.4959V44.2959C110.241 46.0659 108.971 46.9859 107.531 46.9859ZM107.531 46.0659C108.441 46.0659 109.231 45.4459 109.231 44.2659V43.5259C109.231 42.3459 108.441 41.7259 107.531 41.7259C106.611 41.7259 105.831 42.3459 105.831 43.5259V44.2659C105.831 45.4459 106.621 46.0659 107.531 46.0659ZM114.386 40.8059C115.696 40.8059 116.606 41.7659 116.606 43.2559V46.8359H115.596V43.3059C115.596 42.2659 115.056 41.7259 114.126 41.7259C113.236 41.7259 112.546 42.3559 112.546 43.2859V46.8359H111.546V40.9559H112.476L112.526 41.8059C112.896 41.2059 113.546 40.8059 114.386 40.8059Z" fill="#FFFDF0"/>
</svg>
