<svg width="72" height="36" viewBox="0 0 72 36" fill="none" xmlns="http://www.w3.org/2000/svg">
<g filter="url(#filter0_b_3132_20234)">
<rect width="72" height="36" fill="#1E1F23" fill-opacity="0.86"/>
</g>
<path d="M19.955 20.575C19.06 20.575 18.365 20.02 18.365 18.915V16.45H18.865V18.88C18.865 19.745 19.315 20.11 19.955 20.11C20.595 20.11 21.04 19.745 21.04 18.88V16.45H21.545V18.915C21.545 20.02 20.84 20.575 19.955 20.575ZM23.7213 17.485C24.3213 17.485 24.9263 17.99 24.9263 18.865V19.215C24.9263 20.09 24.3213 20.59 23.7213 20.59C23.3313 20.59 22.9763 20.42 22.7463 20.1V21.35H22.2463V17.56H22.7163L22.7413 17.985C22.9663 17.66 23.3263 17.485 23.7213 17.485ZM24.4213 19.2V18.88C24.4213 18.27 24.0463 17.945 23.5813 17.945C23.1213 17.945 22.7463 18.27 22.7463 18.88V19.2C22.7463 19.81 23.1163 20.135 23.5813 20.135C24.0463 20.135 24.4213 19.81 24.4213 19.2ZM27.5787 17.97V16.45H28.0837V20.5H27.6137L27.5887 20.08C27.3637 20.4 27.0037 20.575 26.6087 20.575C25.9937 20.575 25.4037 20.075 25.4037 19.205V18.855C25.4037 17.99 25.9937 17.485 26.6087 17.485C26.9987 17.485 27.3537 17.655 27.5787 17.97ZM26.7487 20.115C27.2037 20.115 27.5787 19.795 27.5787 19.19V18.87C27.5787 18.265 27.2087 17.945 26.7487 17.945C26.2787 17.945 25.9037 18.265 25.9037 18.87V19.19C25.9037 19.795 26.2787 20.115 26.7487 20.115ZM30.0238 17.485C30.7038 17.485 31.1988 17.905 31.1988 18.625V20.5H30.7388L30.7138 20.115C30.5538 20.395 30.2488 20.575 29.8538 20.575H29.6588C29.1138 20.575 28.7088 20.19 28.7088 19.645C28.7088 19.12 29.1038 18.745 29.8238 18.745H30.7038V18.65C30.7038 18.23 30.4638 17.945 29.9888 17.945C29.6538 17.945 29.4088 18.1 29.2738 18.36L28.8238 18.16C29.0338 17.77 29.4788 17.485 30.0238 17.485ZM29.7537 20.115H29.9438C30.3138 20.115 30.6588 19.895 30.7038 19.53V19.185H29.8438C29.4088 19.185 29.2037 19.37 29.2037 19.65C29.2037 19.935 29.4238 20.115 29.7537 20.115ZM33.3718 20.01L33.4968 20.425C33.3168 20.53 33.0818 20.575 32.8768 20.575C32.4218 20.575 32.1218 20.33 32.1218 19.825V18.02H31.5918V17.56H32.1218V16.75H32.6268V17.56H33.3868V18.02H32.6268V19.765C32.6268 20.05 32.7518 20.115 32.9468 20.115C33.1068 20.115 33.2268 20.075 33.3718 20.01ZM36.4522 18.89V19.21H34.2872C34.2972 19.815 34.6822 20.13 35.1322 20.13C35.4872 20.13 35.8122 19.955 35.9472 19.615L36.4072 19.765C36.2222 20.3 35.7022 20.575 35.1322 20.575C34.4222 20.575 33.7972 20.105 33.7972 19.195V18.86C33.7972 17.955 34.4122 17.485 35.1222 17.485C35.8472 17.485 36.4522 17.96 36.4522 18.89ZM34.2922 18.785H35.9522C35.9522 18.265 35.5972 17.935 35.1222 17.935C34.6872 17.935 34.3222 18.225 34.2922 18.785ZM38.1015 19.525L38.5315 19.325C38.7365 19.835 39.1765 20.12 39.7515 20.12C40.3215 20.12 40.7065 19.885 40.7065 19.47C40.7065 19.065 40.4215 18.89 40.0115 18.775L39.4065 18.605C38.8715 18.45 38.3215 18.15 38.3215 17.475C38.3215 16.795 38.9165 16.375 39.6815 16.375C40.4365 16.375 40.9615 16.8 41.1765 17.35L40.7465 17.555C40.5615 17.12 40.2015 16.83 39.6815 16.83C39.1615 16.83 38.8215 17.075 38.8215 17.475C38.8215 17.88 39.1365 18.045 39.5165 18.155L40.1115 18.325C40.6515 18.475 41.2015 18.78 41.2015 19.47C41.2015 20.16 40.5665 20.575 39.7515 20.575C38.9465 20.575 38.3465 20.19 38.1015 19.525ZM43.033 20.575C42.318 20.575 41.683 20.115 41.683 19.23V18.83C41.683 17.95 42.318 17.485 43.033 17.485C43.753 17.485 44.388 17.95 44.388 18.83V19.23C44.388 20.115 43.753 20.575 43.033 20.575ZM43.033 20.115C43.488 20.115 43.883 19.805 43.883 19.215V18.845C43.883 18.255 43.488 17.945 43.033 17.945C42.573 17.945 42.183 18.255 42.183 18.845V19.215C42.183 19.805 42.578 20.115 43.033 20.115ZM46.2654 20.575C45.5504 20.575 44.9154 20.115 44.9154 19.23V18.83C44.9154 17.95 45.5504 17.485 46.2654 17.485C46.9854 17.485 47.6204 17.95 47.6204 18.83V19.23C47.6204 20.115 46.9854 20.575 46.2654 20.575ZM46.2654 20.115C46.7204 20.115 47.1154 19.805 47.1154 19.215V18.845C47.1154 18.255 46.7204 17.945 46.2654 17.945C45.8054 17.945 45.4154 18.255 45.4154 18.845V19.215C45.4154 19.805 45.8104 20.115 46.2654 20.115ZM49.6928 17.485C50.3478 17.485 50.8028 17.965 50.8028 18.71V20.5H50.2978V18.735C50.2978 18.215 50.0278 17.945 49.5628 17.945C49.1178 17.945 48.7728 18.26 48.7728 18.725V20.5H48.2728V17.56H48.7378L48.7628 17.985C48.9478 17.685 49.2728 17.485 49.6928 17.485Z" fill="#FFFDF0"/>
<defs>
<filter id="filter0_b_3132_20234" x="-4" y="-4" width="80" height="44" filterUnits="userSpaceOnUse" color-interpolation-filters="sRGB">
<feFlood flood-opacity="0" result="BackgroundImageFix"/>
<feGaussianBlur in="BackgroundImageFix" stdDeviation="2"/>
<feComposite in2="SourceAlpha" operator="in" result="effect1_backgroundBlur_3132_20234"/>
<feBlend mode="normal" in="SourceGraphic" in2="effect1_backgroundBlur_3132_20234" result="shape"/>
</filter>
</defs>
</svg>
