<svg width="350" height="380" viewBox="0 0 350 380" fill="none" xmlns="http://www.w3.org/2000/svg">
<path fill-rule="evenodd" clip-rule="evenodd" d="M68.3333 0H0V380H68.3333C68.3333 356.068 48.9323 336.667 25 336.667V43.3333C48.9323 43.3333 68.3333 23.9323 68.3333 0ZM281.667 0C281.667 23.9323 301.068 43.3333 325 43.3333V336.667C301.068 336.667 281.667 356.068 281.667 380H350V0H281.667Z" fill="#3D3D41"/>
<path fill-rule="evenodd" clip-rule="evenodd" d="M321.667 333.451V46.5494C298.55 44.918 280.082 26.4499 278.451 3.33331H71.5495C69.918 26.4499 51.4499 44.918 28.3333 46.5494V333.451C51.4499 335.082 69.918 353.55 71.5495 376.667H278.451C280.082 353.55 298.55 335.082 321.667 333.451ZM325 336.667C301.068 336.667 281.667 356.068 281.667 380H68.3333C68.3333 356.068 48.9323 336.667 25 336.667V43.3333C48.9323 43.3333 68.3333 23.9323 68.3333 0H281.667C281.667 23.9323 301.068 43.3333 325 43.3333V336.667ZM31.6667 10C33.5076 10 35 8.50763 35 6.66669C35 4.82574 33.5076 3.33331 31.6667 3.33331C29.8257 3.33331 28.3333 4.82574 28.3333 6.66669C28.3333 8.50763 29.8257 10 31.6667 10ZM31.6667 13.3333C35.3486 13.3333 38.3333 10.3486 38.3333 6.66669C38.3333 2.98474 35.3486 0 31.6667 0C27.9848 0 25 2.98474 25 6.66669C25 10.3486 27.9848 13.3333 31.6667 13.3333ZM35 373.333C35 375.174 33.5076 376.667 31.6667 376.667C29.8257 376.667 28.3333 375.174 28.3333 373.333C28.3333 371.492 29.8257 370 31.6667 370C33.5076 370 35 371.492 35 373.333ZM38.3333 373.333C38.3333 377.015 35.3486 380 31.6667 380C27.9848 380 25 377.015 25 373.333C25 369.651 27.9848 366.667 31.6667 366.667C35.3486 366.667 38.3333 369.651 38.3333 373.333ZM318.333 10C320.174 10 321.667 8.50763 321.667 6.66669C321.667 4.82574 320.174 3.33331 318.333 3.33331C316.492 3.33331 315 4.82574 315 6.66669C315 8.50763 316.492 10 318.333 10ZM318.333 13.3333C322.015 13.3333 325 10.3486 325 6.66669C325 2.98474 322.015 0 318.333 0C314.651 0 311.667 2.98474 311.667 6.66669C311.667 10.3486 314.651 13.3333 318.333 13.3333ZM321.667 373.333C321.667 375.174 320.174 376.667 318.333 376.667C316.492 376.667 315 375.174 315 373.333C315 371.492 316.492 370 318.333 370C320.174 370 321.667 371.492 321.667 373.333ZM325 373.333C325 377.015 322.015 380 318.333 380C314.651 380 311.667 377.015 311.667 373.333C311.667 369.651 314.651 366.667 318.333 366.667C322.015 366.667 325 369.651 325 373.333Z" fill="#2F9C89"/>
</svg>
