<svg width="89" height="114" viewBox="0 0 89 114" fill="none" xmlns="http://www.w3.org/2000/svg">
<path d="M0.701056 10.4287C5.77562 9.79561 9.79621 5.77515 10.4288 0.701056H76.5021C77.1918 6.23477 81.9112 10.5158 87.632 10.5158V101.653C81.4364 101.653 76.4151 106.675 76.4151 112.87H10.5158C10.5158 107.15 6.23471 102.43 0.701056 101.74V10.4287Z" stroke="#98989B" stroke-width="1.40211"/>
<path d="M3.50528 2.10317C3.50528 2.87753 2.87753 3.50528 2.10317 3.50528C1.3288 3.50528 0.701056 2.87753 0.701056 2.10317C0.701056 1.3288 1.3288 0.701056 2.10317 0.701056C2.87753 0.701056 3.50528 1.3288 3.50528 2.10317Z" stroke="#98989B" stroke-width="1.40211"/>
<path d="M3.50528 111.468C3.50528 112.243 2.87753 112.871 2.10317 112.871C1.3288 112.871 0.701056 112.243 0.701056 111.468C0.701056 110.694 1.3288 110.066 2.10317 110.066C2.87753 110.066 3.50528 110.694 3.50528 111.468Z" stroke="#98989B" stroke-width="1.40211"/>
<path d="M87.6313 2.10317C87.6313 2.87753 87.0035 3.50528 86.2291 3.50528C85.4548 3.50528 84.827 2.87753 84.827 2.10317C84.827 1.3288 85.4548 0.701056 86.2291 0.701056C87.0035 0.701056 87.6313 1.3288 87.6313 2.10317Z" stroke="#98989B" stroke-width="1.40211"/>
<path d="M87.6313 111.468C87.6313 112.243 87.0035 112.871 86.2291 112.871C85.4548 112.871 84.827 112.243 84.827 111.468C84.827 110.694 85.4548 110.066 86.2291 110.066C87.0035 110.066 87.6313 110.694 87.6313 111.468Z" stroke="#98989B" stroke-width="1.40211"/>
</svg>
