<svg width="300" height="54" viewBox="0 0 300 54" fill="none" xmlns="http://www.w3.org/2000/svg">
<path d="M298.893 33.2083C299.504 33.2083 300 33.7039 300 34.3152V41.8865C300 42.4978 299.504 42.9934 298.893 42.9934H276.622C276.011 42.9934 275.515 42.4978 275.515 41.8865V13.1069C275.515 12.4956 276.011 12 276.622 12H284.238C284.849 12 285.345 12.4956 285.345 13.1069V32.8541H283.219V33.2083H298.893Z" fill="#34AB96"/>
<path d="M271.371 42.6392C271.394 42.8272 271.248 42.9934 271.058 42.9934H248.613C248.002 42.9934 247.506 42.4978 247.506 41.8865V13.1069C247.506 12.4956 248.002 12 248.613 12H271.058C271.248 12 271.394 12.1661 271.371 12.3542C271.371 12.5313 271.194 14.3909 270.972 16.4719C270.795 18.5529 270.663 20.2797 270.618 20.2797C266.501 20.3682 262.427 20.3682 258.31 20.3682H257.332C256.723 20.3682 256.229 20.8622 256.229 21.4716V23.9989H253.749V24.4416H262.914C263.526 24.4416 264.021 24.9372 264.021 25.5485V29.4448C264.021 30.0562 263.526 30.5517 262.914 30.5517H257.332C256.723 30.5517 256.229 31.0458 256.229 31.6552V33.5007C256.229 34.1009 256.708 34.5911 257.309 34.6039L258.31 34.6252C259.461 34.6252 262.693 34.6252 265.482 34.6694C267.116 34.6694 268.573 34.6694 269.515 34.6779C270.126 34.6834 270.69 35.2021 270.743 35.8111C270.804 36.505 270.883 37.4678 270.972 38.5215C271.194 40.6024 271.371 42.462 271.371 42.6392Z" fill="#34AB96"/>
<path d="M229.028 42.9934C228.417 42.9934 227.921 42.4978 227.921 41.8865V21.8736H221.413C220.801 21.8736 220.306 21.378 220.306 20.7667V13.1069C220.306 12.4956 220.801 12 221.413 12H245.144C245.756 12 246.251 12.4956 246.251 13.1069V20.7667C246.251 21.378 245.756 21.8736 245.144 21.8736H240.805C235.448 21.8736 235.404 21.8736 235.404 22.0064C235.404 22.1393 235.448 22.1393 236.555 22.1393H237.75V41.8865C237.75 42.4978 237.255 42.9934 236.643 42.9934H229.028Z" fill="#34AB96"/>
<path d="M166.601 42.8605C166.589 42.8605 166.579 42.8506 166.579 42.8384C166.579 42.8262 166.569 42.8163 166.557 42.8163H162.993C162.382 42.8163 161.886 42.3207 161.886 41.7094V13.1069C161.886 12.4956 162.382 12 162.993 12H170.608C171.22 12 171.715 12.4956 171.715 13.1069V30.4189C171.715 31.0302 172.211 31.5258 172.822 31.5258H177.56C178.171 31.5258 178.666 31.0302 178.666 30.4189V13.1069C178.666 12.4956 179.162 12 179.773 12H187.389C188 12 188.496 12.4956 188.496 13.1069V41.7094C188.496 42.3207 188 42.8163 187.389 42.8163H179.773C179.162 42.8163 178.666 42.3207 178.666 41.7094V34.8908H181.81V34.5366H168.572V34.8908H171.715V42.6834C171.715 42.8057 171.616 42.9048 171.494 42.9048C171.406 42.9048 169.204 42.8608 166.601 42.8605Z" fill="#34AB96"/>
<path d="M126.076 42.6303C125.474 42.6303 124.986 42.1419 124.986 41.5395V13.0908C124.986 12.4884 125.474 12 126.076 12H131.443C138.293 12.0436 138.555 12.0436 140.388 12.4363C143.66 13.0908 147.98 14.8798 148.809 18.5449C148.983 19.1994 148.983 20.5084 148.765 21.1629C147.718 24.8281 143.966 27.3588 140.65 28.7114L139.952 28.9732H138.337C136.679 28.9732 136.243 29.0605 135.326 29.3659C134.803 29.5404 134.323 29.8022 134.323 29.8895C134.323 30.0204 134.497 30.0204 135.065 29.8022C135.719 29.4968 136.417 29.3659 137.508 29.235C140.257 28.9296 143.878 30.1949 145.929 32.1148C148.591 34.6891 148.765 36.6962 148.809 40.056L148.834 41.521C148.844 42.1306 148.353 42.6303 147.743 42.6303H140.301C139.698 42.6303 139.21 42.1419 139.21 41.5395V41.3213C139.21 38.3106 138.381 34.6455 135.545 33.0747C135.239 32.9438 134.934 32.8129 134.847 32.7693L134.672 32.7256V41.5395C134.672 42.1419 134.184 42.6303 133.581 42.6303H126.076ZM134.672 19.1558V23.8245L135.501 23.7373C137.29 23.7373 140.999 22.9519 142.046 21.5992C142.788 20.5084 141.522 19.5485 138.773 19.1558C138.032 19.0685 135.457 19.0249 134.934 19.1122L134.672 19.1558Z" fill="#FFFDF0"/>
<path d="M121.488 42.2824C121.511 42.4677 121.367 42.6314 121.18 42.6314H99.0613C98.4588 42.6314 97.9705 42.143 97.9705 41.5406V13.1792C97.9705 12.5768 98.4588 12.0884 99.0613 12.0884H121.18C121.367 12.0884 121.511 12.2521 121.488 12.4374C121.488 12.612 121.314 14.4446 121.096 16.4953C120.921 18.5461 120.79 20.2477 120.747 20.2477C116.689 20.335 112.675 20.335 108.617 20.335H107.375C106.928 20.335 106.566 20.6974 106.566 21.1444V23.9129H104.123V24.3492H113.155C113.757 24.3492 114.245 24.8376 114.245 25.44V29.2798C114.245 29.8822 113.757 30.3706 113.155 30.3706H107.375C106.928 30.3706 106.566 30.733 106.566 31.18V33.5488C106.566 33.9891 106.918 34.3487 107.358 34.358L108.617 34.3848C109.751 34.3848 112.936 34.3848 115.685 34.4284C117.295 34.4284 118.732 34.4284 119.659 34.4368C120.261 34.4422 120.817 34.9534 120.87 35.5535C120.93 36.2373 121.007 37.1862 121.096 38.2245C121.314 40.2752 121.488 42.1078 121.488 42.2824Z" fill="#FFFDF0"/>
<path d="M81.8351 42.6312C77.0791 41.8895 72.8468 39.1406 71.1888 34.4282C70.4907 32.3775 70.2725 30.5013 70.3161 26.6616C70.3598 24 70.4907 22.9092 70.7961 21.5129C71.1888 20.1167 71.8433 18.6331 72.6723 17.455C73.2831 16.626 74.6794 15.1425 75.552 14.5753C78.0827 12.7427 80.9624 11.9137 84.2349 12.0882C89.5144 12.4373 94.1394 15.8843 95.7102 21.0329C95.9257 21.7225 96.1412 22.7102 96.1464 23.2809C96.1465 23.295 96.1475 23.3089 96.1495 23.3229C96.1722 23.4818 96.0655 23.6304 95.9077 23.6596L95.0121 23.8254C93.1141 24.1477 89.4822 24.6464 88.2168 24.7907C87.9293 24.8235 87.7242 24.6751 87.6987 24.3869C87.6785 24.1591 87.6584 23.866 87.6382 23.5637C87.5073 21.6874 86.7655 16.5388 84.0167 16.5388C83.4495 16.5388 82.8386 16.8442 82.2278 17.455C80.7879 18.8949 79.7844 21.8183 79.5226 25.309C79.4353 26.7052 79.4789 29.5414 79.6535 30.6322C79.9153 32.6829 81.2242 38.2243 84.0603 38.2243C86.0238 38.2243 87.0273 35.0391 87.3328 33.5556C87.42 33.1629 87.5073 32.7266 87.5509 32.6393C87.5509 32.4648 87.5509 32.4648 89.0344 32.4648H90.5179V32.1157H84.453C83.8506 32.1157 83.3622 31.6273 83.3622 31.0249V30.2868C83.3622 29.6829 83.8529 29.194 84.4567 29.196L95.103 29.2322C95.704 29.2343 96.1901 29.722 96.1901 30.323V30.414C96.1901 35.0391 93.4413 39.1406 89.3399 41.235C87.3328 42.2822 85.762 42.544 83.5804 42.6312C82.7514 42.6312 81.9223 42.6312 81.8351 42.5876V42.6312Z" fill="#FFFDF0"/>
<path d="M46.1536 42.5442V42.5005H42.6194C42.0169 42.5005 41.5286 42.0121 41.5286 41.4097V13.1792C41.5286 12.5768 42.0169 12.0884 42.6194 12.0884H50.5902C50.9711 12.0884 51.3172 12.3098 51.4768 12.6556C51.7386 13.2228 53.2657 16.9316 56.1018 23.8256L58.0216 28.5816V20.335L58.0595 13.1734C58.0627 12.5732 58.5501 12.0884 59.1503 12.0884H66.6608C67.2633 12.0884 67.7516 12.5768 67.7516 13.1792V41.4097C67.7516 42.0121 67.2633 42.5005 66.6608 42.5005H58.2834C58.1461 42.5005 58.0168 42.4359 57.9344 42.326C57.8035 42.1078 57.4544 41.2788 54.2256 33.5558C52.6548 29.7597 51.2586 26.4872 51.1713 26.2691C51.0841 26.0509 50.7786 25.2655 50.4732 24.5238C50.0369 23.5202 49.906 23.2148 49.8187 23.2148C49.7315 23.2148 49.6878 23.2584 49.6878 23.3457C49.6878 23.3893 50.0369 24.262 50.4296 25.2655L51.215 27.0981V42.4113C51.215 42.5088 51.1359 42.5878 51.0385 42.5878C51.0111 42.5878 50.9832 42.5831 50.956 42.5801C50.6339 42.5442 48.5662 42.5442 46.1536 42.5442Z" fill="#FFFDF0"/>
<path d="M36.9579 12C37.5603 12 38.0487 12.4884 38.0487 13.0908V41.6268C38.0487 42.2292 37.5603 42.7176 36.9579 42.7176H29.4531C28.8507 42.7176 28.3623 42.2292 28.3623 41.6268V13.0908C28.3623 12.4884 28.8507 12 29.4531 12H36.9579Z" fill="#FFFDF0"/>
<path d="M11.5243 42.6312C6.76836 41.8895 2.53601 39.1406 0.877982 34.4282C0.179864 32.3775 -0.0382985 30.5013 0.00533395 26.6616C0.0489664 24 0.179864 22.9092 0.48529 21.5129C0.877982 20.1167 1.53247 18.6331 2.36148 17.455C2.97234 16.626 4.36858 15.1425 5.24122 14.5753C7.7719 12.7427 10.6516 11.9137 13.9241 12.0882C19.2036 12.4373 23.8286 15.8843 25.3994 21.0329C25.6149 21.7225 25.8304 22.7102 25.8356 23.2809C25.8358 23.295 25.8367 23.3089 25.8387 23.3229C25.8614 23.4818 25.7547 23.6304 25.5969 23.6596L24.7013 23.8254C22.8033 24.1477 19.1714 24.6464 17.906 24.7907C17.6186 24.8235 17.4134 24.6751 17.3879 24.3869C17.3677 24.1591 17.3476 23.866 17.3274 23.5637C17.1965 21.6874 16.4548 16.5388 13.7059 16.5388C13.1387 16.5388 12.5278 16.8442 11.917 17.455C10.4771 18.8949 9.47357 21.8183 9.21177 25.309C9.12451 26.7052 9.16814 29.5414 9.34267 30.6322C9.60447 32.6829 10.9134 38.2243 13.7495 38.2243C15.713 38.2243 16.7165 35.0391 17.022 33.5556C17.1092 33.1629 17.1965 32.7266 17.2401 32.6393C17.2401 32.4648 17.2401 32.4648 18.7236 32.4648H20.2071V32.1157H14.1422C13.5398 32.1157 13.0514 31.6273 13.0514 31.0249V30.2868C13.0514 29.6829 13.5421 29.194 14.146 29.196L24.7922 29.2322C25.3932 29.2343 25.8794 29.722 25.8794 30.323V30.414C25.8794 35.0391 23.1305 39.1406 19.0291 41.235C17.022 42.2822 15.4512 42.544 13.2696 42.6312C12.4406 42.6312 11.6116 42.6312 11.5243 42.5876V42.6312Z" fill="#FFFDF0"/>
<path fill-rule="evenodd" clip-rule="evenodd" d="M192.131 28.1608C192.175 31.393 192.397 34.4923 194.256 37.2817C196.293 40.3368 199.392 42.3292 203.067 42.9048H203.111C203.554 42.9934 204.307 42.9934 205.945 42.9934C206.081 42.9902 206.209 42.9873 206.33 42.9845C207.907 42.9484 208.292 42.9396 208.867 42.8163C211.657 42.2407 213.605 41.178 215.553 39.2299C217.855 36.8832 218.962 34.2267 219.272 30.3304V26.8325C219.272 21.7408 218.342 17.4017 213.782 14.3024C213.162 13.8153 211.967 13.1512 211.524 13.0184C211.448 12.9678 211.314 12.9171 211.181 12.8665C211.08 12.8286 210.98 12.7906 210.904 12.7527C209.31 12.1328 207.583 12 205.901 12C202.802 12 200.101 12.487 197.488 14.3466C195.186 16.0734 193.327 18.5529 192.662 21.3866C192.22 23.2904 192.087 24.9287 192.131 28.1608ZM207.25 18.5873C206.763 18.3625 206.234 18.2461 205.698 18.2462C205.161 18.2461 204.632 18.3625 204.145 18.5874C203.658 18.8123 203.226 19.1403 202.879 19.5486C202.531 19.957 202.276 20.436 202.132 20.9525C201.988 21.469 201.958 22.0106 202.044 22.5399L201.854 22.489C201.5 22.3892 201.13 22.3607 200.765 22.4051C200.4 22.4495 200.048 22.5659 199.728 22.7475C199.409 22.9292 199.128 23.1725 198.904 23.4634C198.679 23.7542 198.514 24.0868 198.419 24.4418C198.324 24.7969 198.3 25.1672 198.35 25.5315C198.399 25.8957 198.52 26.2466 198.706 26.5637C198.891 26.8808 199.138 27.1578 199.432 27.3787C199.726 27.5996 200.061 27.7599 200.417 27.8504L201.997 28.2741V28.9782L200.287 31.9387C199.925 32.5759 199.829 33.3305 200.022 34.0378C200.214 34.7451 200.678 35.3477 201.312 35.7142C201.947 36.0807 202.701 36.1812 203.409 35.9939C204.118 35.8066 204.724 35.3465 205.094 34.7143L205.698 33.6688L206.301 34.7133C206.482 35.0315 206.724 35.3108 207.013 35.5351C207.302 35.7594 207.633 35.9242 207.986 36.0201C208.34 36.116 208.708 36.1411 209.071 36.0939C209.434 36.0467 209.784 35.9282 210.101 35.7452C210.418 35.5622 210.696 35.3182 210.918 35.0275C211.141 34.7367 211.303 34.4048 211.397 34.051C211.49 33.6971 211.513 33.3282 211.464 32.9655C211.414 32.6029 211.293 32.2536 211.108 31.9378L209.398 28.9763V28.2732L210.978 27.8495C211.335 27.759 211.669 27.5986 211.963 27.3778C212.257 27.1569 212.504 26.8798 212.69 26.5627C212.876 26.2456 212.997 25.8948 213.046 25.5306C213.095 25.1663 213.071 24.7959 212.976 24.4409C212.881 24.0859 212.716 23.7533 212.491 23.4625C212.267 23.1716 211.987 22.9283 211.667 22.7466C211.348 22.5649 210.995 22.4485 210.63 22.4042C210.265 22.3598 209.895 22.3883 209.542 22.4881L209.351 22.539C209.437 22.0098 209.407 21.4682 209.263 20.9519C209.118 20.4355 208.864 19.9566 208.516 19.5483C208.169 19.1401 207.737 18.8122 207.25 18.5873ZM205.043 28.6941C205.217 28.5206 205.452 28.4231 205.698 28.4231C205.943 28.4231 206.178 28.5206 206.352 28.6941C206.525 28.8676 206.623 29.1029 206.623 29.3483C206.623 29.5936 206.525 29.8289 206.352 30.0025C206.178 30.176 205.943 30.2734 205.698 30.2734C205.452 30.2734 205.217 30.176 205.043 30.0025C204.87 29.8289 204.772 29.5936 204.772 29.3483C204.772 29.1029 204.87 28.8676 205.043 28.6941ZM205.043 25.9185C205.217 25.745 205.452 25.6476 205.698 25.6476C205.943 25.6476 206.178 25.745 206.352 25.9185C206.525 26.092 206.623 26.3274 206.623 26.5727C206.623 26.8181 206.525 27.0534 206.352 27.2269C206.178 27.4004 205.943 27.4979 205.698 27.4979C205.452 27.4979 205.217 27.4004 205.043 27.2269C204.87 27.0534 204.772 26.8181 204.772 26.5727C204.772 26.3274 204.87 26.092 205.043 25.9185Z" fill="#34AB96"/>
<path d="M298.945 12H290.505C289.925 12 289.455 12.4747 289.455 13.055L289.45 19.3849C289.45 19.9652 289.925 20.4399 290.505 20.4399H298.945C299.525 20.4399 300 19.9652 300 19.3849V13.055C300 12.4747 299.525 12 298.945 12ZM298.945 13.8621C298.945 14.0163 298.866 14.1596 298.735 14.2414L295.123 16.4988C294.88 16.6509 294.571 16.6509 294.327 16.4988L290.715 14.2414C290.585 14.1596 290.505 14.0163 290.505 13.8621C290.505 13.5107 290.892 13.2965 291.19 13.4827L294.327 15.4438C294.571 15.5959 294.88 15.5959 295.123 15.4438L298.261 13.4827C298.559 13.2965 298.945 13.5107 298.945 13.8621Z" fill="#34AB96"/>
<path fill-rule="evenodd" clip-rule="evenodd" d="M300 53.5L-2.62268e-07 53.5L0 50.5L300 50.5L300 53.5Z" fill="#2F9C89"/>
<path fill-rule="evenodd" clip-rule="evenodd" d="M300 3.50003L-2.62268e-07 3.5L0 0.5L300 0.500026L300 3.50003Z" fill="#2F9C89"/>
</svg>
