<svg width="146" height="35" viewBox="0 0 146 35" fill="none" xmlns="http://www.w3.org/2000/svg">
<path d="M131.198 34.2424C131.21 34.3363 131.136 34.4193 131.042 34.4193H119.828C119.523 34.4193 119.275 34.1717 119.275 33.8663V19.4885C119.275 19.1831 119.523 18.9355 119.828 18.9355H131.042C131.136 18.9355 131.21 19.0185 131.198 19.1125C131.198 19.201 131.109 20.13 130.999 21.1696C130.91 22.2093 130.844 23.0719 130.822 23.0719C128.765 23.1162 126.73 23.1162 124.673 23.1162H124.184C123.88 23.1162 123.633 23.363 123.633 23.6674V24.93H122.394V25.1512H126.973C127.278 25.1512 127.526 25.3988 127.526 25.7042V27.6507C127.526 27.9561 127.278 28.2037 126.973 28.2037H124.184C123.88 28.2037 123.633 28.4505 123.633 28.7549V29.6769C123.633 29.9768 123.873 30.2217 124.172 30.2281L124.673 30.2387C125.248 30.2387 126.862 30.2387 128.256 30.2608C129.072 30.2608 129.8 30.2608 130.27 30.2651C130.576 30.2678 130.857 30.527 130.884 30.8312C130.915 31.1778 130.954 31.6588 130.999 32.1852C131.109 33.2248 131.198 34.1539 131.198 34.2424Z" fill="#34AB96"/>
<path d="M110.043 34.4193C109.738 34.4193 109.49 34.1717 109.49 33.8663V23.8682H106.239C105.933 23.8682 105.686 23.6206 105.686 23.3152V19.4885C105.686 19.1831 105.933 18.9355 106.239 18.9355H118.095C118.4 18.9355 118.648 19.1831 118.648 19.4885V23.3152C118.648 23.6206 118.4 23.8682 118.095 23.8682H115.927C113.25 23.8682 113.228 23.8682 113.228 23.9346C113.228 24.001 113.25 24.001 113.803 24.001H114.401V33.8663C114.401 34.1717 114.153 34.4193 113.848 34.4193H110.043Z" fill="#34AB96"/>
<path d="M78.8558 34.353C78.8497 34.353 78.8447 34.348 78.8447 34.3419C78.8447 34.3358 78.8397 34.3308 78.8336 34.3308H77.053C76.7476 34.3308 76.5 34.0833 76.5 33.7778V19.4885C76.5 19.1831 76.7476 18.9355 77.053 18.9355H80.8576C81.163 18.9355 81.4106 19.1831 81.4106 19.4885V28.1373C81.4106 28.4427 81.6581 28.6903 81.9636 28.6903H84.3304C84.6358 28.6903 84.8834 28.4427 84.8834 28.1373V19.4885C84.8834 19.1831 85.1309 18.9355 85.4363 18.9355H89.2409C89.5463 18.9355 89.7939 19.1831 89.7939 19.4885V33.7778C89.7939 34.0833 89.5463 34.3308 89.2409 34.3308H85.4363C85.1309 34.3308 84.8834 34.0833 84.8834 33.7778V30.3714H86.4539V30.1945H79.8401V30.3714H81.4106V34.2645C81.4106 34.3256 81.361 34.3751 81.3 34.3751C81.2559 34.3751 80.156 34.3531 78.8558 34.353Z" fill="#34AB96"/>
<path d="M58.4116 33.8668C58.1325 33.8668 57.9062 33.6406 57.9062 33.3615V20.1816C57.9062 19.9025 58.1325 19.6763 58.4116 19.6763H60.898C64.0717 19.6965 64.193 19.6965 65.042 19.8784C66.5581 20.1816 68.5593 21.0104 68.9434 22.7084C69.0242 23.0117 69.0242 23.6181 68.9232 23.9213C68.438 25.6193 66.6996 26.7918 65.1633 27.4184L64.8398 27.5397H64.0919C63.3237 27.5397 63.1216 27.5801 62.6971 27.7216C62.4545 27.8025 62.2322 27.9238 62.2322 27.9642C62.2322 28.0248 62.313 28.0248 62.5758 27.9238C62.879 27.7823 63.2024 27.7216 63.7078 27.661C64.9813 27.5195 66.6591 28.1057 67.6092 28.9951C68.8423 30.1878 68.9231 31.1177 68.9434 32.6742L68.9549 33.3529C68.9597 33.6353 68.732 33.8668 68.4496 33.8668H65.0015C64.7224 33.8668 64.4962 33.6406 64.4962 33.3615V33.2604C64.4962 31.8656 64.1121 30.1676 62.7982 29.4399C62.6567 29.3792 62.5152 29.3186 62.4747 29.2984L62.3939 29.2781V33.3615C62.3939 33.6406 62.1676 33.8668 61.8885 33.8668H58.4116ZM62.3939 22.9914V25.1544L62.7779 25.114C63.6067 25.114 65.325 24.7501 65.8101 24.1235C66.1538 23.6181 65.5675 23.1734 64.294 22.9914C63.9504 22.951 62.7577 22.9308 62.5152 22.9712L62.3939 22.9914Z" fill="#FFFDF0"/>
<path d="M56.2843 33.7052C56.295 33.7911 56.2281 33.8669 56.1415 33.8669H45.894C45.6149 33.8669 45.3887 33.6407 45.3887 33.3616V20.2222C45.3887 19.9431 45.6149 19.7168 45.894 19.7168H56.1415C56.2281 19.7168 56.295 19.7926 56.2843 19.8785C56.2843 19.9594 56.2034 20.8084 56.1024 21.7585C56.0215 22.7085 55.9609 23.4969 55.9406 23.4969C54.0607 23.5373 52.201 23.5373 50.321 23.5373H49.7459C49.5388 23.5373 49.3709 23.7052 49.3709 23.9123V25.1949H48.2389V25.3971H52.4233C52.7024 25.3971 52.9287 25.6233 52.9287 25.9024V27.6813C52.9287 27.9604 52.7024 28.1867 52.4233 28.1867H49.7459C49.5388 28.1867 49.3709 28.3546 49.3709 28.5617V29.6591C49.3709 29.8631 49.534 30.0296 49.738 30.034L50.321 30.0464C50.8466 30.0464 52.3222 30.0464 53.5958 30.0666C54.3417 30.0666 55.0071 30.0666 55.4367 30.0705C55.7158 30.073 55.9732 30.3098 55.9977 30.5878C56.0257 30.9046 56.0614 31.3442 56.1024 31.8253C56.2034 32.7753 56.2843 33.6244 56.2843 33.7052Z" fill="#FFFDF0"/>
<path d="M37.9133 33.8667C35.7099 33.5231 33.7491 32.2496 32.981 30.0664C32.6575 29.1163 32.5565 28.2471 32.5767 26.4682C32.5969 25.2352 32.6575 24.7298 32.799 24.0829C32.981 23.4361 33.2842 22.7488 33.6683 22.203C33.9513 21.8189 34.5981 21.1316 35.0024 20.8688C36.1749 20.0198 37.509 19.6357 39.0251 19.7166C41.4711 19.8783 43.6138 21.4753 44.3415 23.8606C44.4414 24.1801 44.5412 24.6376 44.5436 24.902C44.5437 24.9086 44.5441 24.915 44.5451 24.9215C44.5556 24.9951 44.5062 25.0639 44.433 25.0775L44.0181 25.1543C43.1388 25.3036 41.4561 25.5346 40.8699 25.6015C40.7367 25.6167 40.6417 25.5479 40.6299 25.4144C40.6205 25.3089 40.6112 25.1731 40.6018 25.033C40.5412 24.1638 40.1976 21.7785 38.924 21.7785C38.6613 21.7785 38.3783 21.92 38.0952 22.203C37.4282 22.8701 36.9632 24.2244 36.8419 25.8416C36.8015 26.4885 36.8217 27.8024 36.9026 28.3078C37.0239 29.2578 37.6303 31.8251 38.9443 31.8251C39.8539 31.8251 40.3188 30.3494 40.4603 29.6621C40.5008 29.4802 40.5412 29.278 40.5614 29.2376C40.5614 29.1568 40.5614 29.1568 41.2487 29.1568H41.936V28.995H39.1262C38.8471 28.995 38.6208 28.7688 38.6208 28.4897V28.1478C38.6208 27.868 38.8481 27.6414 39.1279 27.6424L44.0602 27.6592C44.3387 27.6601 44.5639 27.8861 44.5639 28.1645V28.2067C44.5639 30.3494 43.2904 32.2496 41.3902 33.2199C40.4603 33.705 39.7326 33.8263 38.7219 33.8667C38.3378 33.8667 37.9537 33.8667 37.9133 33.8465V33.8667Z" fill="#FFFDF0"/>
<path d="M21.383 33.8265V33.8063H19.7456C19.4665 33.8063 19.2402 33.58 19.2402 33.3009V20.2222C19.2402 19.9431 19.4665 19.7168 19.7456 19.7168H23.4384C23.6149 19.7168 23.7752 19.8194 23.8491 19.9796C23.9704 20.2424 24.6779 21.9606 25.9919 25.1545L26.8813 27.3579V23.5373L26.8989 20.2195C26.9003 19.9414 27.1262 19.7168 27.4042 19.7168H30.8838C31.1629 19.7168 31.3891 19.9431 31.3891 20.2222V33.3009C31.3891 33.58 31.1629 33.8063 30.8838 33.8063H27.0026C26.939 33.8063 26.8791 33.7763 26.8409 33.7254C26.7802 33.6244 26.6185 33.2403 25.1227 29.6623C24.3949 27.9037 23.7481 26.3876 23.7076 26.2865C23.6672 26.1854 23.5257 25.8216 23.3842 25.4779C23.1821 25.013 23.1214 24.8715 23.081 24.8715C23.0406 24.8715 23.0203 24.8917 23.0203 24.9321C23.0203 24.9523 23.1821 25.3566 23.364 25.8216L23.7279 26.6706V33.7649C23.7279 33.8101 23.6912 33.8467 23.6461 33.8467C23.6334 33.8467 23.6205 33.8445 23.6079 33.8431C23.4587 33.8265 22.5007 33.8265 21.383 33.8265Z" fill="#FFFDF0"/>
<path d="M17.1229 19.6763C17.402 19.6763 17.6282 19.9025 17.6282 20.1816V33.4019C17.6282 33.681 17.402 33.9073 17.1229 33.9073H13.646C13.3669 33.9073 13.1406 33.681 13.1406 33.4019V20.1816C13.1406 19.9025 13.3669 19.6763 13.646 19.6763H17.1229Z" fill="#FFFDF0"/>
<path d="M5.3391 33.8667C3.13572 33.5231 1.17491 32.2496 0.406761 30.0664C0.0833292 29.1163 -0.0177433 28.2471 0.00247117 26.4682C0.0226857 25.2352 0.0833292 24.7298 0.224831 24.0829C0.406761 23.4361 0.709978 22.7488 1.09405 22.203C1.37706 21.8189 2.02392 21.1316 2.42821 20.8688C3.60065 20.0198 4.93481 19.6357 6.4509 19.7166C8.89685 19.8783 11.0396 21.4753 11.7673 23.8606C11.8671 24.1801 11.967 24.6376 11.9694 24.902C11.9695 24.9086 11.9699 24.915 11.9708 24.9215C11.9814 24.9951 11.9319 25.0639 11.8588 25.0775L11.4439 25.1543C10.5646 25.3036 8.88191 25.5346 8.29568 25.6015C8.16251 25.6167 8.06746 25.5479 8.05564 25.4144C8.0463 25.3089 8.03697 25.1731 8.02763 25.033C7.96698 24.1638 7.62334 21.7785 6.34982 21.7785C6.08703 21.7785 5.80403 21.92 5.52103 22.203C4.85395 22.8701 4.38902 24.2244 4.26773 25.8416C4.2273 26.4885 4.24752 27.8024 4.32837 28.3078C4.44966 29.2578 5.0561 31.8251 6.37004 31.8251C7.27969 31.8251 7.74462 30.3494 7.88613 29.6621C7.92655 29.4802 7.96698 29.278 7.9872 29.2376C7.9872 29.1568 7.9872 29.1568 8.67449 29.1568H9.36178V28.995H6.55197C6.27286 28.995 6.04661 28.7688 6.04661 28.4897V28.1478C6.04661 27.868 6.27391 27.6414 6.55369 27.6424L11.486 27.6592C11.7645 27.6601 11.9897 27.8861 11.9897 28.1645V28.2067C11.9897 30.3494 10.7162 32.2496 8.81599 33.2199C7.88613 33.705 7.1584 33.8263 6.14768 33.8667C5.7636 33.8667 5.37953 33.8667 5.3391 33.8465V33.8667Z" fill="#FFFDF0"/>
<path fill-rule="evenodd" clip-rule="evenodd" d="M91.6095 27.0092C91.6316 28.624 91.7422 30.1723 92.6712 31.5659C93.6887 33.0921 95.2371 34.0875 97.0731 34.3751H97.0952C97.3164 34.4193 97.6924 34.4193 98.5108 34.4193C98.5787 34.4177 98.6428 34.4163 98.7034 34.4149C99.491 34.3969 99.6832 34.3925 99.9707 34.3308C101.364 34.0433 102.338 33.5124 103.311 32.5391C104.461 31.3668 105.014 30.0396 105.169 28.0931V26.3456C105.169 23.8019 104.704 21.6341 102.426 20.0858C102.116 19.8425 101.519 19.5107 101.298 19.4443C101.26 19.419 101.193 19.3937 101.126 19.3685C101.076 19.3495 101.026 19.3305 100.988 19.3116C100.192 19.0019 99.3293 18.9355 98.4887 18.9355C96.9403 18.9355 95.591 19.1789 94.286 20.1079C93.1358 20.9706 92.2067 22.2093 91.8749 23.6249C91.6537 24.5761 91.5874 25.3945 91.6095 27.0092ZM99.1628 22.2259C98.9197 22.1136 98.655 22.0554 98.3872 22.0555C98.1193 22.0554 97.8546 22.1136 97.6114 22.2259C97.3683 22.3383 97.1524 22.5021 96.9788 22.7062C96.8052 22.9102 96.678 23.1495 96.606 23.4075C96.5341 23.6655 96.519 23.9361 96.5619 24.2005L96.4667 24.1751C96.29 24.1253 96.1051 24.111 95.9229 24.1332C95.7406 24.1554 95.5645 24.2135 95.4049 24.3043C95.2453 24.395 95.1053 24.5166 94.993 24.6619C94.8808 24.8072 94.7985 24.9734 94.751 25.1507C94.7034 25.3281 94.6916 25.5131 94.7161 25.6951C94.7407 25.877 94.8012 26.0523 94.894 26.2107C94.9868 26.3692 95.1102 26.5076 95.257 26.6179C95.4037 26.7283 95.571 26.8084 95.7489 26.8536L96.5384 27.0653V27.417L95.6842 28.896C95.5032 29.2143 95.4555 29.5913 95.5515 29.9447C95.6474 30.298 95.8792 30.5991 96.1963 30.7822C96.5134 30.9653 96.89 31.0155 97.244 30.9219C97.598 30.8283 97.9006 30.5985 98.0858 30.2826L98.3872 29.7604L98.6885 30.2822C98.7789 30.4411 98.8998 30.5807 99.0444 30.6927C99.1889 30.8048 99.3542 30.8871 99.5306 30.935C99.7071 30.9829 99.8913 30.9955 100.073 30.9719C100.254 30.9483 100.429 30.8891 100.587 30.7977C100.746 30.7062 100.884 30.5844 100.995 30.4391C101.106 30.2939 101.188 30.1281 101.234 29.9513C101.281 29.7745 101.293 29.5902 101.268 29.409C101.243 29.2278 101.183 29.0533 101.09 28.8956L100.236 27.4161V27.0648L101.025 26.8531C101.203 26.8079 101.371 26.7278 101.517 26.6174C101.664 26.5071 101.788 26.3687 101.88 26.2103C101.973 26.0519 102.034 25.8766 102.058 25.6946C102.083 25.5126 102.071 25.3276 102.023 25.1502C101.976 24.9729 101.894 24.8067 101.781 24.6614C101.669 24.5161 101.529 24.3946 101.369 24.3038C101.21 24.213 101.034 24.1549 100.851 24.1327C100.669 24.1105 100.484 24.1248 100.308 24.1746L100.212 24.2001C100.255 23.9357 100.24 23.6652 100.168 23.4072C100.096 23.1492 99.9689 22.91 99.7954 22.706C99.6218 22.502 99.4059 22.3382 99.1628 22.2259ZM98.0603 27.275C98.147 27.1884 98.2646 27.1397 98.3872 27.1397C98.5098 27.1397 98.6273 27.1884 98.714 27.275C98.8007 27.3617 98.8494 27.4793 98.8494 27.6019C98.8494 27.7245 98.8007 27.842 98.714 27.9287C98.6273 28.0154 98.5098 28.0641 98.3872 28.0641C98.2646 28.0641 98.147 28.0154 98.0603 27.9287C97.9737 27.842 97.925 27.7245 97.925 27.6019C97.925 27.4793 97.9737 27.3617 98.0603 27.275ZM98.0603 25.8884C98.147 25.8018 98.2646 25.7531 98.3872 25.7531C98.5098 25.7531 98.6273 25.8018 98.714 25.8884C98.8007 25.9751 98.8494 26.0927 98.8494 26.2153C98.8494 26.3379 98.8007 26.4554 98.714 26.5421C98.6273 26.6288 98.5098 26.6775 98.3872 26.6775C98.2646 26.6775 98.147 26.6288 98.0603 26.5421C97.9737 26.4554 97.925 26.3379 97.925 26.2153C97.925 26.0927 97.9737 25.9751 98.0603 25.8884Z" fill="#34AB96"/>
<path fill-rule="evenodd" clip-rule="evenodd" d="M145.5 30.0839C145.5 29.7784 145.252 29.5309 144.947 29.5309H137.116V29.3539H138.178V19.4885C138.178 19.1831 137.931 18.9355 137.625 18.9355H133.821C133.515 18.9355 133.268 19.1831 133.268 19.4885V33.8663C133.268 34.1717 133.515 34.4193 133.821 34.4193H144.947C145.252 34.4193 145.5 34.1717 145.5 33.8663V30.0839ZM140.756 18.9355H144.973C145.263 18.9355 145.5 19.1727 145.5 19.4626V22.6249C145.5 22.9148 145.263 23.152 144.973 23.152H140.756C140.466 23.152 140.229 22.9148 140.229 22.6249L140.232 19.4626C140.232 19.1727 140.466 18.9355 140.756 18.9355ZM144.868 20.0553C144.933 20.0145 144.973 19.9428 144.973 19.8658C144.973 19.6903 144.78 19.5833 144.631 19.6763L143.063 20.656C142.942 20.732 142.787 20.732 142.666 20.656L141.098 19.6763C140.949 19.5833 140.756 19.6903 140.756 19.8658C140.756 19.9428 140.796 20.0145 140.861 20.0553L142.666 21.1831C142.787 21.2591 142.942 21.2591 143.063 21.1831L144.868 20.0553Z" fill="#34AB96"/>
<path d="M4.22169 7.57498C5.24169 6.81898 5.76969 6.13498 5.76969 5.25898C5.76969 4.37098 5.13369 3.97498 4.44969 3.97498C3.89769 3.97498 3.50169 4.25098 3.17769 4.80298C2.84169 5.39098 2.06169 5.40298 1.76169 4.85098C1.67769 4.70698 1.66569 4.43098 1.74969 4.23898C2.07369 3.45898 3.00969 2.61898 4.49769 2.61898C6.17769 2.61898 7.37769 3.74698 7.37769 5.25898C7.37769 6.69898 6.64569 7.53898 5.10969 8.73898C4.30569 9.36298 3.62169 10.203 3.32169 10.719H6.96969C7.32969 10.719 7.66569 10.959 7.66569 11.415C7.66569 11.907 7.26969 12.111 6.96969 12.111H2.24169C1.79769 12.111 1.42569 11.883 1.42569 11.307C1.42569 10.215 2.96169 8.52298 4.22169 7.57498ZM16.1908 7.44298C16.1908 10.299 14.9908 12.183 12.8548 12.183C10.7788 12.183 9.53084 10.323 9.53084 7.44298C9.53084 4.55098 10.7788 2.63098 12.8548 2.63098C14.9908 2.63098 16.1908 4.58698 16.1908 7.44298ZM11.1388 7.41898C11.1388 9.60298 11.7868 10.791 12.8548 10.791C13.9468 10.791 14.5828 9.61498 14.5828 7.41898C14.5828 5.15098 13.9468 4.02298 12.8548 4.02298C11.7868 4.02298 11.1388 5.15098 11.1388 7.41898ZM20.792 7.57498C21.812 6.81898 22.34 6.13498 22.34 5.25898C22.34 4.37098 21.704 3.97498 21.02 3.97498C20.468 3.97498 20.072 4.25098 19.748 4.80298C19.412 5.39098 18.632 5.40298 18.332 4.85098C18.248 4.70698 18.236 4.43098 18.32 4.23898C18.644 3.45898 19.58 2.61898 21.068 2.61898C22.748 2.61898 23.948 3.74698 23.948 5.25898C23.948 6.69898 23.216 7.53898 21.68 8.73898C20.876 9.36298 20.192 10.203 19.892 10.719H23.54C23.9 10.719 24.236 10.959 24.236 11.415C24.236 11.907 23.84 12.111 23.54 12.111H18.812C18.368 12.111 17.996 11.883 17.996 11.307C17.996 10.215 19.532 8.52298 20.792 7.57498ZM28.7052 6.60298C29.8092 6.60298 30.5412 6.25498 30.5412 5.30698C30.5412 4.40698 29.9292 3.98698 29.2092 3.98698C28.6932 3.98698 28.2732 4.19098 27.8772 4.68298C27.5412 5.09098 27.1212 5.15098 26.7852 4.97098C26.4492 4.76698 26.2932 4.40698 26.5452 3.96298C27.0372 3.11098 28.0452 2.63098 29.1372 2.63098C30.9612 2.63098 32.1612 3.63898 32.1612 5.29498C32.1612 6.06298 31.7412 6.85498 31.0932 7.20298C31.9932 7.59898 32.5332 8.46298 32.5332 9.44698C32.5332 11.055 31.2372 12.183 29.2332 12.183C28.2612 12.183 27.1932 11.859 26.4972 11.247C26.1132 10.911 26.1132 10.515 26.3652 10.215C26.6652 9.86698 27.1092 9.91498 27.4692 10.191C27.9972 10.599 28.5612 10.827 29.2932 10.827C30.2532 10.827 30.9132 10.371 30.9132 9.42298C30.9132 8.33098 30.2532 7.99498 29.0772 7.99498H28.1292C27.6492 7.99498 27.3252 7.77898 27.3252 7.31098C27.3252 6.81898 27.6972 6.60298 28.1292 6.60298H28.7052Z" fill="#FFFDF0"/>
</svg>
