<svg width="32" height="33" viewBox="0 0 32 33" fill="none" xmlns="http://www.w3.org/2000/svg">
<g clip-path="url(#clip0_2935_3406)">
<path d="M16.0009 2.92896C16.7735 2.92885 17.537 3.09662 18.2383 3.42065C18.9397 3.74468 19.5624 4.21724 20.0631 4.80562C20.5639 5.39401 20.9308 6.08416 21.1386 6.82834C21.3463 7.57252 21.3899 8.35295 21.2662 9.11562L21.5409 9.04229C22.0507 8.89849 22.584 8.85738 23.1098 8.92134C23.6356 8.9853 24.1435 9.15306 24.604 9.41488C25.0644 9.6767 25.4683 10.0274 25.7921 10.4465C26.116 10.8657 26.3533 11.345 26.4905 11.8566C26.6276 12.3683 26.6617 12.9021 26.5909 13.427C26.52 13.9519 26.3456 14.4576 26.0778 14.9146C25.81 15.3716 25.4541 15.7708 25.0307 16.0891C24.6073 16.4075 24.125 16.6385 23.6116 16.769L21.3342 17.3796V18.393L23.7982 22.661C24.065 23.116 24.2392 23.6194 24.3106 24.1421C24.3821 24.6647 24.3495 25.1963 24.2146 25.7063C24.0798 26.2163 23.8454 26.6946 23.525 27.1137C23.2045 27.5327 22.8044 27.8842 22.3475 28.148C21.8907 28.4118 21.3862 28.5826 20.8631 28.6506C20.34 28.7186 19.8086 28.6824 19.2995 28.5442C18.7904 28.406 18.3136 28.1684 17.8967 27.8452C17.4798 27.522 17.131 27.1195 16.8702 26.661L16.0009 25.1556L15.1316 26.6623C14.5974 27.5735 13.7244 28.2365 12.7032 28.5064C11.6821 28.7764 10.5955 28.6315 9.68079 28.1034C8.76604 27.5752 8.09732 26.7067 7.82057 25.6873C7.54382 24.668 7.6815 23.5805 8.20357 22.6623L10.6676 18.3956V17.381L8.39023 16.7703C7.87684 16.6399 7.39447 16.4088 6.9711 16.0905C6.54773 15.7721 6.19181 15.3729 5.92398 14.9159C5.65616 14.4589 5.48177 13.9533 5.41093 13.4283C5.34009 12.9034 5.37422 12.3696 5.51134 11.858C5.64845 11.3463 5.88582 10.867 6.20966 10.4479C6.53351 10.0287 6.93738 9.67804 7.39784 9.41621C7.8583 9.15439 8.36618 8.98663 8.892 8.92267C9.41781 8.85871 9.9511 8.89982 10.4609 9.04362L10.7356 9.11695C10.6117 8.35418 10.6551 7.57361 10.8628 6.82927C11.0704 6.08492 11.4373 5.39459 11.9381 4.80606C12.4389 4.21752 13.0616 3.74484 13.7631 3.42073C14.4646 3.09662 15.2281 2.92882 16.0009 2.92896ZM16.0009 5.59562C15.467 5.5957 14.9455 5.75601 14.5037 6.05582C14.062 6.35563 13.7204 6.78112 13.5232 7.27723C13.326 7.77335 13.2822 8.31723 13.3976 8.83849C13.5129 9.35975 13.7821 9.83438 14.1702 10.201C14.3859 10.4047 14.5275 10.6746 14.5725 10.9678C14.6175 11.2611 14.5635 11.561 14.4189 11.8201C14.2743 12.0791 14.0474 12.2826 13.7741 12.3982C13.5009 12.5138 13.1969 12.5349 12.9102 12.4583L9.77023 11.6183C9.5995 11.5675 9.42032 11.5515 9.24328 11.5711C9.06624 11.5907 8.89492 11.6456 8.73945 11.7325C8.58397 11.8194 8.44749 11.9366 8.33807 12.0772C8.22864 12.2177 8.14848 12.3788 8.10233 12.5508C8.05618 12.7229 8.04497 12.9024 8.06936 13.0789C8.09375 13.2553 8.15325 13.4251 8.24434 13.5782C8.33544 13.7312 8.45628 13.8645 8.59973 13.9701C8.74318 14.0757 8.90634 14.1515 9.07957 14.193L12.3462 15.069C12.6295 15.1449 12.8798 15.3121 13.0584 15.5447C13.237 15.7774 13.334 16.0624 13.3342 16.3556V18.7503C13.3342 18.9843 13.2726 19.2143 13.1556 19.417L10.5129 23.9956C10.424 24.1473 10.3659 24.3151 10.3421 24.4893C10.3183 24.6635 10.3292 24.8408 10.3741 25.0107C10.419 25.1807 10.4972 25.3402 10.604 25.4799C10.7108 25.6195 10.8442 25.7367 10.9965 25.8246C11.1487 25.9126 11.3169 25.9695 11.4913 25.9922C11.6657 26.0148 11.8428 26.0028 12.0125 25.9567C12.1822 25.9106 12.3411 25.8314 12.4801 25.7237C12.619 25.616 12.7353 25.4818 12.8222 25.329L14.5916 22.2636C14.7086 22.0609 14.8769 21.8926 15.0796 21.7756C15.2823 21.6586 15.5122 21.597 15.7462 21.597H16.2556C16.4894 21.5972 16.719 21.6589 16.9215 21.7759C17.1239 21.8929 17.292 22.0611 17.4089 22.2636L19.1796 25.3303C19.3576 25.634 19.6486 25.855 19.989 25.945C20.3294 26.035 20.6916 25.9867 20.9965 25.8107C21.3014 25.6346 21.5243 25.3451 21.6166 25.0053C21.7088 24.6655 21.6629 24.303 21.4889 23.997L18.8462 19.4183C18.7292 19.2156 18.6676 18.9857 18.6676 18.7516V16.3556C18.6678 16.0624 18.7648 15.7774 18.9434 15.5447C19.122 15.3121 19.3723 15.1449 19.6556 15.069L22.9222 14.193C23.2638 14.1014 23.5551 13.8778 23.7318 13.5715C23.9086 13.2652 23.9565 12.9012 23.8649 12.5596C23.7733 12.218 23.5498 11.9268 23.2435 11.75C22.9372 11.5732 22.5732 11.5254 22.2316 11.617L19.0916 12.4583C18.8049 12.5349 18.5009 12.5138 18.2277 12.3982C17.9544 12.2826 17.7275 12.0791 17.5829 11.8201C17.4383 11.561 17.3843 11.2611 17.4293 10.9678C17.4743 10.6746 17.6159 10.4047 17.8316 10.201C18.2197 9.83438 18.4888 9.35975 18.6042 8.83849C18.7196 8.31723 18.6758 7.77335 18.4786 7.27723C18.2814 6.78112 17.9398 6.35563 17.4981 6.05582C17.0563 5.75601 16.5348 5.5957 16.0009 5.59562ZM16.0009 17.5956C16.3545 17.5956 16.6937 17.7361 16.9437 17.9861C17.1938 18.2362 17.3342 18.5753 17.3342 18.929C17.3342 19.2826 17.1938 19.6217 16.9437 19.8718C16.6937 20.1218 16.3545 20.2623 16.0009 20.2623C15.6473 20.2623 15.3081 20.1218 15.0581 19.8718C14.808 19.6217 14.6676 19.2826 14.6676 18.929C14.6676 18.5753 14.808 18.2362 15.0581 17.9861C15.3081 17.7361 15.6473 17.5956 16.0009 17.5956ZM16.0009 13.5956C16.3545 13.5956 16.6937 13.7361 16.9437 13.9861C17.1938 14.2362 17.3342 14.5753 17.3342 14.929C17.3342 15.2826 17.1938 15.6217 16.9437 15.8718C16.6937 16.1218 16.3545 16.2623 16.0009 16.2623C15.6473 16.2623 15.3081 16.1218 15.0581 15.8718C14.808 15.6217 14.6676 15.2826 14.6676 14.929C14.6676 14.5753 14.808 14.2362 15.0581 13.9861C15.3081 13.7361 15.6473 13.5956 16.0009 13.5956Z" fill="#C6C6C7"/>
</g>
<defs>
<clipPath id="clip0_2935_3406">
<rect width="32" height="32" fill="white" transform="translate(0 0.262207)"/>
</clipPath>
</defs>
</svg>
