<svg width="32" height="32" viewBox="0 0 32 32" fill="none" xmlns="http://www.w3.org/2000/svg">
<g id="Group">
<g id="Vector">
<path fill-rule="evenodd" clip-rule="evenodd" d="M18.595 5.35483C19.0437 5.03226 19.6743 4.88188 20.294 5.10866C21.6114 5.59129 22.835 6.29911 23.9102 7.20055C24.4159 7.62499 24.6014 8.24468 24.5457 8.79282C24.4547 9.70598 24.6148 10.5876 25.055 11.3467C25.443 12.0222 26.0276 12.5558 26.7406 12.9317L27.0135 13.0651C27.5155 13.2919 27.9618 13.7636 28.0746 14.4149C28.3141 15.7951 28.3141 17.2063 28.0746 18.5865C27.9739 19.1735 27.6016 19.6137 27.1614 19.8611L27.0135 19.9375C26.1767 20.3134 25.4928 20.8955 25.0538 21.6546C24.6148 22.415 24.4547 23.2954 24.5457 24.2086C24.6002 24.7567 24.4159 25.3776 23.9102 25.8008C22.835 26.7023 21.6114 27.4101 20.294 27.8927C20.0124 27.9934 19.7104 28.0237 19.4145 27.9808C19.1185 27.9378 18.8376 27.8231 18.5962 27.6466C17.8492 27.1118 17.0039 26.8086 16.1271 26.8086C15.2504 26.8086 14.4051 27.1105 13.6593 27.6466C13.4178 27.8233 13.1366 27.9382 12.8405 27.9811C12.5443 28.024 12.2421 27.9937 11.9603 27.8927C10.6429 27.4101 9.41925 26.7023 8.34408 25.8008C8.11636 25.6074 7.93941 25.3611 7.82865 25.0836C7.71789 24.8061 7.67669 24.5057 7.70862 24.2086C7.79958 23.2954 7.63829 22.4138 7.19929 21.6546C6.79946 20.9768 6.21475 20.427 5.51365 20.0696L5.24079 19.9363C4.96715 19.815 4.72735 19.6286 4.54238 19.3934C4.3574 19.1581 4.23288 18.8811 4.17969 18.5865C3.9401 17.2063 3.9401 15.7951 4.17969 14.4149C4.28034 13.8279 4.65264 13.3877 5.09285 13.1403L5.24079 13.0651C6.07755 12.688 6.76151 12.1071 7.20051 11.3467C7.63829 10.5876 7.79958 9.70598 7.70862 8.79282C7.67669 8.49572 7.71789 8.19531 7.82865 7.91779C7.93941 7.64026 8.11636 7.39403 8.34408 7.20055C9.41926 6.29911 10.6429 5.59129 11.9603 5.10866C12.2419 5.00804 12.5439 4.97788 12.8398 5.02079C13.1357 5.0637 13.4167 5.17838 13.6581 5.35483C14.4039 5.89084 15.2491 6.1928 16.1271 6.1928C17.0051 6.1928 17.8492 5.89084 18.595 5.35483ZM19.7555 7.50009C18.7053 8.19132 17.4672 8.61819 16.1271 8.61819C14.7871 8.61819 13.549 8.19011 12.4988 7.50009C11.6545 7.84086 10.8625 8.29891 10.1461 8.86073C10.2189 10.1134 9.9703 11.3989 9.30089 12.5594C8.63027 13.7188 7.64193 14.5761 6.52019 15.1401C6.39381 16.0419 6.39381 16.957 6.52019 17.8589C7.64193 18.4228 8.63027 19.2802 9.30089 20.4419C9.9703 21.6001 10.2189 22.8855 10.1461 24.1382C10.8625 24.7005 11.6545 25.1589 12.4988 25.5001C13.549 24.8089 14.7871 24.382 16.1271 24.382C17.4672 24.382 18.7053 24.8101 19.7555 25.5001C20.5997 25.1593 21.3917 24.7012 22.1081 24.1394C22.0354 22.8855 22.284 21.6001 22.9534 20.4407C23.6228 19.2802 24.6124 18.4228 25.7341 17.8577C25.8604 16.9566 25.8604 16.0423 25.7341 15.1413C24.6124 14.5761 23.624 13.7188 22.9534 12.5582C22.284 11.3989 22.0354 10.1134 22.1081 8.85952C21.3917 8.29769 20.5998 7.84086 19.7555 7.50009ZM16.1271 11.6499C17.4136 11.6499 18.6475 12.161 19.5572 13.0707C20.4668 13.9804 20.9779 15.2142 20.9779 16.5007C20.9779 17.7872 20.4668 19.021 19.5572 19.9307C18.6475 20.8404 17.4136 21.3515 16.1271 21.3515C14.8406 21.3515 13.6068 20.8404 12.6971 19.9307C11.7874 19.021 11.2764 17.7872 11.2764 16.5007C11.2764 15.2142 11.7874 13.9804 12.6971 13.0707C13.6068 12.161 14.8406 11.6499 16.1271 11.6499ZM16.1271 14.0753C15.4839 14.0753 14.867 14.3308 14.4121 14.7857C13.9573 15.2405 13.7018 15.8574 13.7018 16.5007C13.7018 17.1439 13.9573 17.7609 14.4121 18.2157C14.867 18.6705 15.4839 18.9261 16.1271 18.9261C16.7704 18.9261 17.3873 18.6705 17.8421 18.2157C18.297 17.7609 18.5525 17.1439 18.5525 16.5007C18.5525 15.8574 18.297 15.2405 17.8421 14.7857C17.3873 14.3308 16.7704 14.0753 16.1271 14.0753Z" fill="#FFFDF0"/>
<path fill-rule="evenodd" clip-rule="evenodd" d="M18.595 5.35483C19.0437 5.03226 19.6743 4.88188 20.294 5.10866C21.6114 5.59129 22.835 6.29911 23.9102 7.20055C24.4159 7.62499 24.6014 8.24468 24.5457 8.79282C24.4547 9.70598 24.6148 10.5876 25.055 11.3467C25.443 12.0222 26.0276 12.5558 26.7406 12.9317L27.0135 13.0651C27.5155 13.2919 27.9618 13.7636 28.0746 14.4149C28.3141 15.7951 28.3141 17.2063 28.0746 18.5865C27.9739 19.1735 27.6016 19.6137 27.1614 19.8611L27.0135 19.9375C26.1767 20.3134 25.4928 20.8955 25.0538 21.6546C24.6148 22.415 24.4547 23.2954 24.5457 24.2086C24.6002 24.7567 24.4159 25.3776 23.9102 25.8008C22.835 26.7023 21.6114 27.4101 20.294 27.8927C20.0124 27.9934 19.7104 28.0237 19.4145 27.9808C19.1185 27.9378 18.8376 27.8231 18.5962 27.6466C17.8492 27.1118 17.0039 26.8086 16.1271 26.8086C15.2504 26.8086 14.4051 27.1105 13.6593 27.6466C13.4178 27.8233 13.1366 27.9382 12.8405 27.9811C12.5443 28.024 12.2421 27.9937 11.9603 27.8927C10.6429 27.4101 9.41925 26.7023 8.34408 25.8008C8.11636 25.6074 7.93941 25.3611 7.82865 25.0836C7.71789 24.8061 7.67669 24.5057 7.70862 24.2086C7.79958 23.2954 7.63829 22.4138 7.19929 21.6546C6.79946 20.9768 6.21475 20.427 5.51365 20.0696L5.24079 19.9363C4.96715 19.815 4.72735 19.6286 4.54238 19.3934C4.3574 19.1581 4.23288 18.8811 4.17969 18.5865C3.9401 17.2063 3.9401 15.7951 4.17969 14.4149C4.28034 13.8279 4.65264 13.3877 5.09285 13.1403L5.24079 13.0651C6.07755 12.688 6.76151 12.1071 7.20051 11.3467C7.63829 10.5876 7.79958 9.70598 7.70862 8.79282C7.67669 8.49572 7.71789 8.19531 7.82865 7.91779C7.93941 7.64026 8.11636 7.39403 8.34408 7.20055C9.41926 6.29911 10.6429 5.59129 11.9603 5.10866C12.2419 5.00804 12.5439 4.97788 12.8398 5.02079C13.1357 5.0637 13.4167 5.17838 13.6581 5.35483C14.4039 5.89084 15.2491 6.1928 16.1271 6.1928C17.0051 6.1928 17.8492 5.89084 18.595 5.35483ZM19.7555 7.50009C18.7053 8.19132 17.4672 8.61819 16.1271 8.61819C14.7871 8.61819 13.549 8.19011 12.4988 7.50009C11.6545 7.84086 10.8625 8.29891 10.1461 8.86073C10.2189 10.1134 9.9703 11.3989 9.30089 12.5594C8.63027 13.7188 7.64193 14.5761 6.52019 15.1401C6.39381 16.0419 6.39381 16.957 6.52019 17.8589C7.64193 18.4228 8.63027 19.2802 9.30089 20.4419C9.9703 21.6001 10.2189 22.8855 10.1461 24.1382C10.8625 24.7005 11.6545 25.1589 12.4988 25.5001C13.549 24.8089 14.7871 24.382 16.1271 24.382C17.4672 24.382 18.7053 24.8101 19.7555 25.5001C20.5997 25.1593 21.3917 24.7012 22.1081 24.1394C22.0354 22.8855 22.284 21.6001 22.9534 20.4407C23.6228 19.2802 24.6124 18.4228 25.7341 17.8577C25.8604 16.9566 25.8604 16.0423 25.7341 15.1413C24.6124 14.5761 23.624 13.7188 22.9534 12.5582C22.284 11.3989 22.0354 10.1134 22.1081 8.85952C21.3917 8.29769 20.5998 7.84086 19.7555 7.50009ZM16.1271 11.6499C17.4136 11.6499 18.6475 12.161 19.5572 13.0707C20.4668 13.9804 20.9779 15.2142 20.9779 16.5007C20.9779 17.7872 20.4668 19.021 19.5572 19.9307C18.6475 20.8404 17.4136 21.3515 16.1271 21.3515C14.8406 21.3515 13.6068 20.8404 12.6971 19.9307C11.7874 19.021 11.2764 17.7872 11.2764 16.5007C11.2764 15.2142 11.7874 13.9804 12.6971 13.0707C13.6068 12.161 14.8406 11.6499 16.1271 11.6499ZM16.1271 14.0753C15.4839 14.0753 14.867 14.3308 14.4121 14.7857C13.9573 15.2405 13.7018 15.8574 13.7018 16.5007C13.7018 17.1439 13.9573 17.7609 14.4121 18.2157C14.867 18.6705 15.4839 18.9261 16.1271 18.9261C16.7704 18.9261 17.3873 18.6705 17.8421 18.2157C18.297 17.7609 18.5525 17.1439 18.5525 16.5007C18.5525 15.8574 18.297 15.2405 17.8421 14.7857C17.3873 14.3308 16.7704 14.0753 16.1271 14.0753Z" fill="url(#paint0_linear_3303_17922)" fill-opacity="0.6"/>
</g>
</g>
<defs>
<linearGradient id="paint0_linear_3303_17922" x1="16.1271" y1="5" x2="16.1271" y2="28" gradientUnits="userSpaceOnUse">
<stop stop-color="#FFFEFB"/>
<stop offset="1" stop-color="white" stop-opacity="0"/>
</linearGradient>
</defs>
</svg>
