<svg width="30" height="30" viewBox="0 0 30 30" fill="none" xmlns="http://www.w3.org/2000/svg">
<g id="help_FILL0_wght400_GRAD0_opsz24 1">
<path id="Vector" d="M14.9375 22.5C15.375 22.5 15.7448 22.349 16.0469 22.0469C16.349 21.7448 16.5 21.375 16.5 20.9375C16.5 20.5 16.349 20.1302 16.0469 19.8281C15.7448 19.526 15.375 19.375 14.9375 19.375C14.5 19.375 14.1302 19.526 13.8281 19.8281C13.526 20.1302 13.375 20.5 13.375 20.9375C13.375 21.375 13.526 21.7448 13.8281 22.0469C14.1302 22.349 14.5 22.5 14.9375 22.5ZM13.8125 17.6875H16.125C16.125 17 16.2031 16.4583 16.3594 16.0625C16.5156 15.6667 16.9583 15.125 17.6875 14.4375C18.2292 13.8958 18.6562 13.3802 18.9688 12.8906C19.2812 12.401 19.4375 11.8125 19.4375 11.125C19.4375 9.95833 19.0104 9.0625 18.1562 8.4375C17.3021 7.8125 16.2917 7.5 15.125 7.5C13.9375 7.5 12.974 7.8125 12.2344 8.4375C11.4948 9.0625 10.9792 9.8125 10.6875 10.6875L12.75 11.5C12.8542 11.125 13.0885 10.7188 13.4531 10.2812C13.8177 9.84375 14.375 9.625 15.125 9.625C15.7917 9.625 16.2917 9.80729 16.625 10.1719C16.9583 10.5365 17.125 10.9375 17.125 11.375C17.125 11.7917 17 12.1823 16.75 12.5469C16.5 12.9115 16.1875 13.25 15.8125 13.5625C14.8958 14.375 14.3333 14.9896 14.125 15.4062C13.9167 15.8229 13.8125 16.5833 13.8125 17.6875ZM15 27.5C13.2708 27.5 11.6458 27.1719 10.125 26.5156C8.60417 25.8594 7.28125 24.9688 6.15625 23.8438C5.03125 22.7188 4.14062 21.3958 3.48438 19.875C2.82812 18.3542 2.5 16.7292 2.5 15C2.5 13.2708 2.82812 11.6458 3.48438 10.125C4.14062 8.60417 5.03125 7.28125 6.15625 6.15625C7.28125 5.03125 8.60417 4.14062 10.125 3.48438C11.6458 2.82812 13.2708 2.5 15 2.5C16.7292 2.5 18.3542 2.82812 19.875 3.48438C21.3958 4.14062 22.7188 5.03125 23.8438 6.15625C24.9688 7.28125 25.8594 8.60417 26.5156 10.125C27.1719 11.6458 27.5 13.2708 27.5 15C27.5 16.7292 27.1719 18.3542 26.5156 19.875C25.8594 21.3958 24.9688 22.7188 23.8438 23.8438C22.7188 24.9688 21.3958 25.8594 19.875 26.5156C18.3542 27.1719 16.7292 27.5 15 27.5ZM15 25C17.7917 25 20.1562 24.0312 22.0938 22.0938C24.0312 20.1562 25 17.7917 25 15C25 12.2083 24.0312 9.84375 22.0938 7.90625C20.1562 5.96875 17.7917 5 15 5C12.2083 5 9.84375 5.96875 7.90625 7.90625C5.96875 9.84375 5 12.2083 5 15C5 17.7917 5.96875 20.1562 7.90625 22.0938C9.84375 24.0312 12.2083 25 15 25Z" fill="#F1F1F2"/>
</g>
</svg>
