<svg width="32" height="33" viewBox="0 0 32 33" fill="none" xmlns="http://www.w3.org/2000/svg">
<g id="mingcute:home-5-fill" clip-path="url(#clip0_3041_3838)">
<g id="Group">
<g id="Vector">
<path fill-rule="evenodd" clip-rule="evenodd" d="M17.6388 3.84627C17.1707 3.48213 16.5945 3.28442 16.0014 3.28442C15.4084 3.28442 14.8322 3.48213 14.3641 3.84627L3.18544 12.5396C2.18277 13.3223 2.73477 14.9289 4.00544 14.9289H5.46144L6.55477 25.8609C6.62057 26.519 6.92851 27.129 7.41882 27.5728C7.90913 28.0165 8.54682 28.2622 9.20811 28.2623H22.7948C23.4561 28.2622 24.0938 28.0165 24.5841 27.5728C25.0744 27.129 25.3823 26.519 25.4481 25.8609L26.5414 14.9289H27.9974C29.2668 14.9289 29.8214 13.3223 28.8174 12.5409L17.6388 3.84627ZM16.0014 21.5956C17.0623 21.5956 18.0797 21.1742 18.8299 20.424C19.58 19.6739 20.0014 18.6565 20.0014 17.5956C20.0014 16.5347 19.58 15.5173 18.8299 14.7672C18.0797 14.017 17.0623 13.5956 16.0014 13.5956C14.9406 13.5956 13.9232 14.017 13.173 14.7672C12.4229 15.5173 12.0014 16.5347 12.0014 17.5956C12.0014 18.6565 12.4229 19.6739 13.173 20.424C13.9232 21.1742 14.9406 21.5956 16.0014 21.5956Z" fill="#FFFDF0"/>
<path fill-rule="evenodd" clip-rule="evenodd" d="M17.6388 3.84627C17.1707 3.48213 16.5945 3.28442 16.0014 3.28442C15.4084 3.28442 14.8322 3.48213 14.3641 3.84627L3.18544 12.5396C2.18277 13.3223 2.73477 14.9289 4.00544 14.9289H5.46144L6.55477 25.8609C6.62057 26.519 6.92851 27.129 7.41882 27.5728C7.90913 28.0165 8.54682 28.2622 9.20811 28.2623H22.7948C23.4561 28.2622 24.0938 28.0165 24.5841 27.5728C25.0744 27.129 25.3823 26.519 25.4481 25.8609L26.5414 14.9289H27.9974C29.2668 14.9289 29.8214 13.3223 28.8174 12.5409L17.6388 3.84627ZM16.0014 21.5956C17.0623 21.5956 18.0797 21.1742 18.8299 20.424C19.58 19.6739 20.0014 18.6565 20.0014 17.5956C20.0014 16.5347 19.58 15.5173 18.8299 14.7672C18.0797 14.017 17.0623 13.5956 16.0014 13.5956C14.9406 13.5956 13.9232 14.017 13.173 14.7672C12.4229 15.5173 12.0014 16.5347 12.0014 17.5956C12.0014 18.6565 12.4229 19.6739 13.173 20.424C13.9232 21.1742 14.9406 21.5956 16.0014 21.5956Z" fill="url(#paint0_linear_3041_3838)" fill-opacity="0.6"/>
</g>
</g>
</g>
<defs>
<linearGradient id="paint0_linear_3041_3838" x1="16.0016" y1="3.28442" x2="16.0016" y2="28.2623" gradientUnits="userSpaceOnUse">
<stop stop-color="#FFFEFB"/>
<stop offset="1" stop-color="white" stop-opacity="0"/>
</linearGradient>
<clipPath id="clip0_3041_3838">
<rect width="32" height="32" fill="white" transform="translate(0 0.262207)"/>
</clipPath>
</defs>
</svg>
