<svg width="52" height="52" viewBox="0 0 52 52" fill="none" xmlns="http://www.w3.org/2000/svg">
<path d="M6.65234 1H48.0002C49.657 1 51.0002 2.34315 51.0002 4V48C51.0002 49.6569 49.657 51 48.0002 51H6.65234V1Z" fill="#3D3D41" stroke="#FFFDF0" stroke-width="2" stroke-linejoin="round"/>
<path d="M26.4501 13.1882C27.2631 13.1881 28.0664 13.3778 28.8045 13.7441C29.5425 14.1104 30.1977 14.6446 30.7246 15.3097C31.2515 15.9748 31.6376 16.755 31.8562 17.5962C32.0748 18.4375 32.1206 19.3197 31.9905 20.1819L32.2796 20.099C32.816 19.9364 33.3771 19.8899 33.9304 19.9622C34.4837 20.0345 35.0181 20.2242 35.5026 20.5201C35.9872 20.8161 36.4121 21.2125 36.7529 21.6864C37.0937 22.1602 37.3434 22.702 37.4877 23.2804C37.632 23.8588 37.6679 24.4622 37.5934 25.0556C37.5188 25.649 37.3353 26.2206 37.0535 26.7372C36.7717 27.2538 36.3972 27.7051 35.9517 28.065C35.5062 28.4248 34.9986 28.686 34.4584 28.8335L32.0621 29.5238V30.6693L34.6548 35.494C34.9356 36.0084 35.1188 36.5774 35.194 37.1683C35.2692 37.7591 35.2349 38.3601 35.093 38.9366C34.9511 39.5131 34.7045 40.0538 34.3673 40.5275C34.0301 41.0012 33.6091 41.3986 33.1283 41.6967C32.6476 41.9949 32.1168 42.188 31.5663 42.2648C31.0159 42.3417 30.4567 42.3008 29.921 42.1446C29.3853 41.9883 28.8837 41.7198 28.445 41.3545C28.0063 40.9891 27.6392 40.5341 27.3649 40.0157L26.4501 38.314L25.5354 40.0172C24.9732 41.0473 24.0547 41.7967 22.9802 42.1019C21.9056 42.4071 20.7623 42.2433 19.7998 41.6463C18.8373 41.0492 18.1336 40.0674 17.8424 38.9151C17.5512 37.7628 17.696 36.5335 18.2454 35.4955L20.8381 30.6723V29.5253L18.4418 28.835C17.9016 28.6875 17.394 28.4263 16.9485 28.0665C16.503 27.7066 16.1285 27.2553 15.8467 26.7387C15.5649 26.2221 15.3814 25.6505 15.3069 25.0571C15.2323 24.4637 15.2682 23.8603 15.4125 23.2819C15.5568 22.7035 15.8065 22.1617 16.1473 21.6879C16.4881 21.214 16.9131 20.8176 17.3976 20.5217C17.8821 20.2257 18.4165 20.036 18.9698 19.9637C19.5231 19.8914 20.0842 19.9379 20.6207 20.1005L20.9097 20.1834C20.7794 19.3211 20.825 18.4387 21.0435 17.5973C21.262 16.7558 21.6481 15.9755 22.175 15.3102C22.702 14.6449 23.3572 14.1105 24.0954 13.7441C24.8335 13.3778 25.637 13.1881 26.4501 13.1882ZM26.4501 16.2027C25.8883 16.2028 25.3395 16.384 24.8747 16.7229C24.4099 17.0619 24.0505 17.5429 23.843 18.1037C23.6355 18.6645 23.5894 19.2793 23.7108 19.8686C23.8322 20.4578 24.1154 20.9944 24.5238 21.4088C24.7507 21.6391 24.8997 21.9441 24.9471 22.2756C24.9945 22.6072 24.9376 22.9462 24.7854 23.239C24.6333 23.5319 24.3945 23.7619 24.107 23.8926C23.8195 24.0232 23.4996 24.0472 23.198 23.9605L19.8939 23.011C19.7143 22.9536 19.5257 22.9354 19.3394 22.9576C19.1531 22.9798 18.9729 23.0418 18.8093 23.1401C18.6457 23.2383 18.5021 23.3708 18.3869 23.5297C18.2718 23.6886 18.1874 23.8707 18.1389 24.0651C18.0903 24.2596 18.0785 24.4626 18.1042 24.6621C18.1298 24.8615 18.1924 25.0534 18.2883 25.2265C18.3842 25.3995 18.5113 25.5502 18.6623 25.6695C18.8132 25.7889 18.9849 25.8745 19.1672 25.9214L22.6045 26.9117C22.9026 26.9976 23.166 27.1866 23.3539 27.4496C23.5418 27.7125 23.6438 28.0347 23.6441 28.3662V31.0732C23.6441 31.3378 23.5793 31.5977 23.4561 31.8268L20.6754 37.0027C20.5818 37.1742 20.5207 37.3639 20.4957 37.5608C20.4706 37.7578 20.482 37.9581 20.5293 38.1503C20.5766 38.3424 20.6588 38.5227 20.7712 38.6806C20.8836 38.8385 21.024 38.9709 21.1842 39.0703C21.3444 39.1697 21.5214 39.2341 21.7049 39.2597C21.8884 39.2853 22.0748 39.2717 22.2533 39.2196C22.4319 39.1675 22.5991 39.078 22.7453 38.9562C22.8916 38.8344 23.0139 38.6828 23.1054 38.51L24.9671 35.0448C25.0903 34.8157 25.2674 34.6254 25.4807 34.4931C25.6939 34.3608 25.9359 34.2912 26.1821 34.2912H26.7181C26.9641 34.2915 27.2058 34.3612 27.4188 34.4935C27.6318 34.6258 27.8087 34.8159 27.9317 35.0448L29.7949 38.5115C29.9822 38.8548 30.2884 39.1046 30.6466 39.2064C31.0048 39.3081 31.3859 39.2535 31.7067 39.0545C32.0276 38.8555 32.2621 38.5282 32.3592 38.1441C32.4562 37.76 32.408 37.3502 32.2248 37.0042L29.4441 31.8283C29.321 31.5992 29.2561 31.3393 29.2561 31.0747V28.3662C29.2564 28.0347 29.3584 27.7125 29.5463 27.4496C29.7343 27.1866 29.9977 26.9976 30.2957 26.9117L33.7331 25.9214C34.0925 25.8179 34.3989 25.5652 34.585 25.219C34.771 24.8727 34.8214 24.4612 34.725 24.0751C34.6286 23.6889 34.3934 23.3597 34.0711 23.1599C33.7488 22.96 33.3658 22.9059 33.0063 23.0094L29.7023 23.9605C29.4006 24.0472 29.0808 24.0232 28.7932 23.8926C28.5057 23.7619 28.267 23.5319 28.1148 23.239C27.9626 22.9462 27.9057 22.6072 27.9531 22.2756C28.0005 21.9441 28.1495 21.6391 28.3764 21.4088C28.7848 20.9944 29.068 20.4578 29.1894 19.8686C29.3108 19.2793 29.2648 18.6645 29.0573 18.1037C28.8497 17.5429 28.4903 17.0619 28.0255 16.7229C27.5607 16.384 27.0119 16.2028 26.4501 16.2027ZM26.4501 29.7679C26.8222 29.7679 27.1791 29.9267 27.4422 30.2094C27.7053 30.4921 27.8531 30.8754 27.8531 31.2752C27.8531 31.6749 27.7053 32.0583 27.4422 32.341C27.1791 32.6236 26.8222 32.7824 26.4501 32.7824C26.078 32.7824 25.7212 32.6236 25.458 32.341C25.1949 32.0583 25.0471 31.6749 25.0471 31.2752C25.0471 30.8754 25.1949 30.4921 25.458 30.2094C25.7212 29.9267 26.078 29.7679 26.4501 29.7679ZM26.4501 25.2462C26.8222 25.2462 27.1791 25.405 27.4422 25.6877C27.7053 25.9703 27.8531 26.3537 27.8531 26.7534C27.8531 27.1532 27.7053 27.5366 27.4422 27.8192C27.1791 28.1019 26.8222 28.2607 26.4501 28.2607C26.078 28.2607 25.7212 28.1019 25.458 27.8192C25.1949 27.5366 25.0471 27.1532 25.0471 26.7534C25.0471 26.3537 25.1949 25.9703 25.458 25.6877C25.7212 25.405 26.078 25.2462 26.4501 25.2462Z" fill="#FFFDF0"/>
<path fill-rule="evenodd" clip-rule="evenodd" d="M35.9204 0V12.6788L39.1573 10.53L42.3942 12.6788V0H42.394H35.9206H35.9204Z" fill="#FFFDF0"/>
<path fill-rule="evenodd" clip-rule="evenodd" d="M1.13031 -4.94128e-08C1.75463 -2.21229e-08 2.26074 0.541423 2.26074 1.2093L2.26074 50.7907C2.26074 51.4586 1.75463 52 1.13031 52C0.505985 52 -0.000127181 51.4586 -0.000127151 50.7907L-0.000124984 1.2093C-0.000124955 0.541423 0.505987 -7.67028e-08 1.13031 -4.94128e-08Z" fill="#FFFDF0"/>
</svg>
