<svg width="30" height="30" viewBox="0 0 30 30" fill="none" xmlns="http://www.w3.org/2000/svg">
<path d="M9.78125 16.25L17.7866 24.2554C18.1796 24.6483 18.1768 25.2863 17.7803 25.6758L17.4258 26.0241C17.0343 26.4087 16.406 26.406 16.0179 26.0179L5.70711 15.7071C5.31658 15.3166 5.31658 14.6834 5.70711 14.2929L16.0179 3.98213C16.406 3.59404 17.0343 3.59126 17.4258 3.9759L17.7803 4.3242C18.1768 4.71368 18.1796 5.35167 17.7866 5.74464L9.78125 13.75H26C26.5523 13.75 27 14.1977 27 14.75V15.25C27 15.8023 26.5523 16.25 26 16.25H9.78125Z" fill="#FFFDF0"/>
</svg>
