<svg width="25" height="26" viewBox="0 0 25 26" fill="none" xmlns="http://www.w3.org/2000/svg">
<path d="M13 23C11.6167 23 10.3167 22.7375 9.1 22.2125C7.88333 21.6875 6.825 20.975 5.925 20.075C5.025 19.175 4.3125 18.1167 3.7875 16.9C3.2625 15.6833 3 14.3833 3 13C3 11.6167 3.2625 10.3167 3.7875 9.1C4.3125 7.88333 5.025 6.825 5.925 5.925C6.825 5.025 7.88333 4.3125 9.1 3.7875C10.3167 3.2625 11.6167 3 13 3C14.3833 3 15.6833 3.2625 16.9 3.7875C18.1167 4.3125 19.175 5.025 20.075 5.925C20.975 6.825 21.6875 7.88333 22.2125 9.1C22.7375 10.3167 23 11.6167 23 13C23 14.3833 22.7375 15.6833 22.2125 16.9C21.6875 18.1167 20.975 19.175 20.075 20.075C19.175 20.975 18.1167 21.6875 16.9 22.2125C15.6833 22.7375 14.3833 23 13 23ZM13 21C13.9 21 14.7667 20.8542 15.6 20.5625C16.4333 20.2708 17.2 19.85 17.9 19.3L6.7 8.1C6.15 8.8 5.72917 9.56667 5.4375 10.4C5.14583 11.2333 5 12.1 5 13C5 15.2333 5.775 17.125 7.325 18.675C8.875 20.225 10.7667 21 13 21ZM19.3 17.9C19.85 17.2 20.2708 16.4333 20.5625 15.6C20.8542 14.7667 21 13.9 21 13C21 10.7667 20.225 8.875 18.675 7.325C17.125 5.775 15.2333 5 13 5C12.1 5 11.2333 5.14583 10.4 5.4375C9.56667 5.72917 8.8 6.15 8.1 6.7L19.3 17.9Z" fill="#FF8E6A"/>
</svg>
