<svg width="141" height="46" viewBox="0 0 141 46" fill="none" xmlns="http://www.w3.org/2000/svg">
<rect width="141" height="46" rx="6" fill="#2F9C89"/>
<path d="M52.6523 21.2H54.9403V22.656H52.6523V30.464H51.0523V15.616H52.6523V21.2ZM45.7723 19.44V19.472C45.7723 20.448 45.6443 21.392 45.4043 22.288L49.5963 27.232L48.4123 28.288L44.7803 23.984C44.0923 25.52 43.0203 26.992 41.5963 28.448L40.4603 27.376C42.8763 24.864 44.2043 22.464 44.2043 19.472V19.44H40.9723V17.984H44.2203V15.632H45.7883V17.984H49.0683V19.44H45.7723ZM67.8241 15.616V19.344H70.1281V20.784H67.8241V26.736H66.2241V15.616H67.8241ZM64.7041 22.256L64.8961 23.632C63.1201 23.936 60.9281 24.128 58.8481 24.128H56.2881V16.4H63.5041V17.808H57.8561V22.704H59.1361C60.7841 22.704 62.8641 22.544 64.7041 22.256ZM58.3201 25.808H59.9041V29.008H68.5921V30.464H58.3201V25.808ZM82.996 21.2H85.3V22.656H82.996V30.464H81.396V15.616H82.996V21.2ZM74.676 15.632H76.292V17.808H79.828V19.232H71.14V17.808H74.676V15.632ZM75.508 20.56C77.556 20.56 79.156 21.92 79.156 24.064V24.928C79.156 27.072 77.556 28.448 75.508 28.448C73.444 28.448 71.828 27.072 71.828 24.928V24.064C71.828 21.92 73.444 20.56 75.508 20.56ZM77.556 24.864V24.128C77.556 22.8 76.66 22 75.508 22C74.34 22 73.428 22.8 73.428 24.128V24.864C73.428 26.208 74.34 27.024 75.508 27.024C76.66 27.024 77.556 26.208 77.556 24.864ZM97.4159 30.464V15.616H98.9999V30.464H97.4159ZM92.8399 18.24H87.2719V16.784H94.4399V18.096C94.4399 22.304 92.0399 25.968 87.9119 28.688L86.9519 27.424C90.7919 24.96 92.8399 21.552 92.8399 18.416V18.24Z" fill="#FFFDF0"/>
</svg>
