<svg width="205" height="52" viewBox="0 0 205 52" fill="none" xmlns="http://www.w3.org/2000/svg">
<g filter="url(#filter0_d_2629_9568)">
<rect x="4" width="197" height="44" rx="22" fill="#F1F1F2"/>
<path d="M37.5501 28.0001L31.8501 22.3001L33.2751 20.8751L37.5501 25.1501L46.7251 15.9751L48.1501 17.4001L37.5501 28.0001Z" fill="#158476"/>
<path d="M69.5068 20.9H71.2228V21.992H69.5068V27.848H68.3068V16.712H69.5068V20.9ZM64.3108 17.36V18.812C64.3108 19.748 64.2028 20.648 63.9868 21.5L67.1548 25.46L66.2548 26.216L63.5428 22.82C63.0268 24.056 62.2468 25.208 61.1668 26.336L60.3148 25.544C62.2468 23.528 63.1348 21.476 63.1348 18.812V17.36H64.3108ZM79.5777 20.72V21.944H82.4337V22.976H71.9697V21.944H74.8377V20.72C73.8177 20.444 73.1937 19.82 73.1937 18.86C73.1937 17.492 74.4537 16.832 76.3257 16.832H78.0777C79.9617 16.832 81.2097 17.492 81.2097 18.86C81.2097 19.82 80.5977 20.432 79.5777 20.72ZM74.3937 18.872C74.3937 19.544 75.1617 19.904 76.5417 19.904H77.8737C79.2537 19.904 80.0217 19.532 80.0217 18.872C80.0217 18.188 79.2537 17.84 77.8737 17.84H76.5417C75.1617 17.84 74.3937 18.188 74.3937 18.872ZM75.9777 20.888V21.944H78.4377V20.888C77.6217 20.9 76.7937 20.9 75.9777 20.888ZM75.9297 23.924H78.4737C80.2737 23.924 81.2697 24.776 81.2697 25.94C81.2697 27.116 80.2737 27.968 78.4737 27.968H75.9297C74.1297 27.968 73.1337 27.116 73.1337 25.94C73.1337 24.776 74.1297 23.924 75.9297 23.924ZM76.1697 26.924H78.2457C79.5057 26.924 80.0817 26.54 80.0817 25.928C80.0817 25.34 79.5057 24.956 78.2457 24.956H76.1697C74.9097 24.956 74.3337 25.34 74.3337 25.928C74.3337 26.54 74.9097 26.924 76.1697 26.924ZM92.2646 20.9H93.9806V21.992H92.2646V27.848H91.0646V16.712H92.2646V20.9ZM87.1046 18.68V19.16C87.1046 20 87.0086 20.792 86.8046 21.56L89.9606 25.436L89.0606 26.216L86.3486 22.868C85.8326 24.08 85.0406 25.208 83.9846 26.336L83.1326 25.544C84.9446 23.588 85.9406 21.728 85.9406 19.16V18.68H83.5646V17.588H89.5166V18.68H87.1046ZM104.027 21.164H96.1195V18.596H102.599V17.804H96.0715V16.892H103.799V19.484H97.3195V20.264H104.027V21.164ZM105.191 22.796H94.7275V21.884H105.191V22.796ZM104.207 27.908H96.0115V25.244H102.719V24.452H95.9515V23.54H103.919V26.156H97.2115V26.972H104.207V27.908ZM117.964 20.9H119.68V21.992H117.964V27.848H116.764V16.712H117.964V20.9ZM112.804 19.58V19.604C112.804 20.336 112.708 21.044 112.528 21.716L115.672 25.424L114.784 26.216L112.06 22.988C111.544 24.14 110.74 25.244 109.672 26.336L108.82 25.532C110.632 23.648 111.628 21.848 111.628 19.604V19.58H109.204V18.488H111.64V16.724H112.816V18.488H115.276V19.58H112.804ZM129.343 16.712V19.508H131.071V20.588H129.343V25.052H128.143V16.712H129.343ZM127.003 21.692L127.147 22.724C125.815 22.952 124.171 23.096 122.611 23.096H120.691V17.3H126.103V18.356H121.867V22.028H122.827C124.063 22.028 125.623 21.908 127.003 21.692ZM122.215 24.356H123.403V26.756H129.919V27.848H122.215V24.356ZM135.106 17.696H137.158V18.668H131.83V17.696H133.894V16.58H135.106V17.696ZM140.398 20.456H139.006V23.168H137.89V16.832H139.006V19.4H140.398V16.712H141.526V23.168H140.398V20.456ZM136.75 21.056V21.212C136.75 22.436 135.814 23.06 134.506 23.06C133.198 23.06 132.25 22.436 132.25 21.212V21.056C132.25 19.844 133.198 19.22 134.506 19.22C135.814 19.22 136.75 19.844 136.75 21.056ZM133.33 21.092V21.188C133.33 21.74 133.798 22.076 134.506 22.076C135.202 22.076 135.67 21.74 135.67 21.188V21.092C135.67 20.552 135.202 20.192 134.506 20.192C133.798 20.192 133.33 20.552 133.33 21.092ZM140.098 25.376L142.462 27.056L141.826 27.968L139.594 26.312C139.162 26.912 138.514 27.476 137.578 27.968L135.406 26.312C134.962 26.9 134.278 27.476 133.342 27.968L132.766 27.032C134.398 26.108 134.962 25.172 134.962 24.296V23.804H136.138V24.296C136.138 24.644 136.078 25.004 135.934 25.376L137.638 26.636C138.766 25.844 139.114 25.052 139.114 24.296V23.804H140.278V24.296C140.278 24.644 140.218 25.004 140.098 25.376ZM152.341 20.96L148.069 19.364C147.313 20.012 146.113 20.54 144.397 20.96L144.061 19.916C146.713 19.256 147.901 18.344 147.901 17.3V16.832H149.065V17.3C149.065 17.708 148.981 18.092 148.813 18.44L152.773 19.952L152.341 20.96ZM143.185 22.676V21.656H153.649V22.676H143.185ZM145.669 24.728H151.177V23.624H152.377V27.848H144.469V23.624H145.669V24.728ZM145.669 25.712V26.852H151.177V25.712H145.669ZM164.103 27.848H162.915V16.712H164.103V27.848ZM157.215 26.036H155.283V17.528H156.495V24.944H157.419C158.691 24.944 160.275 24.812 161.703 24.584L161.847 25.64C160.491 25.88 158.811 26.036 157.215 26.036ZM174.858 20.9H176.586V21.992H174.858V27.848H173.658V16.712H174.858V20.9ZM167.418 24.944H168.342C169.566 24.944 171.126 24.812 172.518 24.596L172.662 25.664C171.33 25.88 169.686 26.036 168.126 26.036H166.206V17.528H171.618V18.632H167.418V24.944Z" fill="#3D3D41"/>
</g>
<defs>
<filter id="filter0_d_2629_9568" x="0" y="0" width="205" height="52" filterUnits="userSpaceOnUse" color-interpolation-filters="sRGB">
<feFlood flood-opacity="0" result="BackgroundImageFix"/>
<feColorMatrix in="SourceAlpha" type="matrix" values="0 0 0 0 0 0 0 0 0 0 0 0 0 0 0 0 0 0 127 0" result="hardAlpha"/>
<feOffset dy="4"/>
<feGaussianBlur stdDeviation="2"/>
<feComposite in2="hardAlpha" operator="out"/>
<feColorMatrix type="matrix" values="0 0 0 0 0.1675 0 0 0 0 0.174 0 0 0 0 0.2 0 0 0 0.4 0"/>
<feBlend mode="normal" in2="BackgroundImageFix" result="effect1_dropShadow_2629_9568"/>
<feBlend mode="normal" in="SourceGraphic" in2="effect1_dropShadow_2629_9568" result="shape"/>
</filter>
</defs>
</svg>
