<svg width="25" height="25" viewBox="0 0 25 25" fill="none" xmlns="http://www.w3.org/2000/svg">
<mask id="mask0_2629_10675" style="mask-type:alpha" maskUnits="userSpaceOnUse" x="0" y="0" width="25" height="25">
<rect width="25" height="25" fill="#D9D9D9"/>
</mask>
<g mask="url(#mask0_2629_10675)">
<path d="M6.24967 21.8747C5.46842 21.8747 4.69585 21.6837 3.93197 21.3018C3.16808 20.9198 2.55176 20.4164 2.08301 19.7914C2.5344 19.7914 2.99447 19.6134 3.46322 19.2575C3.93197 18.9016 4.16634 18.3851 4.16634 17.708C4.16634 16.84 4.47016 16.1021 5.0778 15.4945C5.68544 14.8869 6.42329 14.583 7.29134 14.583C8.1594 14.583 8.89724 14.8869 9.50488 15.4945C10.1125 16.1021 10.4163 16.84 10.4163 17.708C10.4163 18.8539 10.0084 19.8348 9.19238 20.6507C8.37641 21.4667 7.39551 21.8747 6.24967 21.8747ZM6.24967 19.7914C6.82259 19.7914 7.31304 19.5874 7.72103 19.1794C8.12901 18.7714 8.33301 18.281 8.33301 17.708C8.33301 17.4129 8.23318 17.1655 8.03353 16.9659C7.83388 16.7662 7.58648 16.6664 7.29134 16.6664C6.9962 16.6664 6.74881 16.7662 6.54915 16.9659C6.3495 17.1655 6.24967 17.4129 6.24967 17.708C6.24967 18.1073 6.20193 18.4719 6.10645 18.8018C6.01096 19.1317 5.88509 19.4442 5.72884 19.7393C5.81565 19.774 5.90245 19.7914 5.98926 19.7914H6.24967ZM12.2393 15.6247L9.37467 12.7601L18.6976 3.43721C18.8886 3.24623 19.1273 3.14641 19.4137 3.13773C19.7002 3.12905 19.9476 3.22887 20.1559 3.43721L21.5622 4.84346C21.7705 5.05179 21.8747 5.29485 21.8747 5.57262C21.8747 5.8504 21.7705 6.09346 21.5622 6.30179L12.2393 15.6247Z" fill="#FFFDF0"/>
</g>
</svg>
