<svg width="141" height="46" viewBox="0 0 141 46" fill="none" xmlns="http://www.w3.org/2000/svg">
<rect width="141" height="46" rx="6" fill="#2F9C89"/>
<path d="M52.1563 21.2V15.616H53.7083V30.464H52.1563V22.656H50.2683V30.16H48.7483V15.84H50.2683V21.2H52.1563ZM43.4683 15.632H45.0843V17.792H47.7563V19.232H40.7803V17.792H43.4683V15.632ZM44.3003 20.56C45.9963 20.56 47.1643 21.92 47.1643 24.064V24.928C47.1643 27.072 45.9963 28.448 44.3003 28.448C42.5723 28.448 41.3883 27.072 41.3883 24.928V24.064C41.3883 21.92 42.5723 20.56 44.3003 20.56ZM45.6923 24.832V24.176C45.6923 22.816 45.1163 22 44.2843 22C43.4523 22 42.8603 22.816 42.8603 24.176V24.832C42.8603 26.192 43.4523 27.024 44.2843 27.024C45.1163 27.024 45.6923 26.192 45.6923 24.832ZM67.3281 30.464V15.616H68.8801V30.464H67.3281ZM61.7441 21.04H64.1121V15.84H65.6321V30.16H64.1121V22.496H61.7441V21.04ZM60.2081 18.24V19.04C60.2081 20.128 60.0961 21.168 59.8881 22.176L63.2481 27.392L61.9841 28.272L59.3281 24.144C58.8001 25.632 58.0001 27.04 56.9761 28.432L55.7601 27.488C57.7121 24.896 58.7361 22.352 58.7361 19.04V18.24H56.2881V16.784H62.7521V18.24H60.2081ZM82.996 21.2H85.3V22.656H82.996V30.464H81.396V15.616H82.996V21.2ZM74.676 15.632H76.292V17.808H79.828V19.232H71.14V17.808H74.676V15.632ZM75.508 20.56C77.556 20.56 79.156 21.92 79.156 24.064V24.928C79.156 27.072 77.556 28.448 75.508 28.448C73.444 28.448 71.828 27.072 71.828 24.928V24.064C71.828 21.92 73.444 20.56 75.508 20.56ZM77.556 24.864V24.128C77.556 22.8 76.66 22 75.508 22C74.34 22 73.428 22.8 73.428 24.128V24.864C73.428 26.208 74.34 27.024 75.508 27.024C76.66 27.024 77.556 26.208 77.556 24.864ZM97.4159 30.464V15.616H98.9999V30.464H97.4159ZM92.8399 18.24H87.2719V16.784H94.4399V18.096C94.4399 22.304 92.0399 25.968 87.9119 28.688L86.9519 27.424C90.7919 24.96 92.8399 21.552 92.8399 18.416V18.24Z" fill="#FFFDF0"/>
</svg>
