<svg width="30" height="30" viewBox="0 0 30 30" fill="none" xmlns="http://www.w3.org/2000/svg">
<g clip-path="url(#clip0_2541_16007)">
<path fill-rule="evenodd" clip-rule="evenodd" d="M14.9997 16.7677L22.0709 23.8389C22.3067 24.0666 22.6224 24.1926 22.9502 24.1898C23.2779 24.1869 23.5914 24.0555 23.8232 23.8237C24.0549 23.5919 24.1864 23.2784 24.1892 22.9507C24.1921 22.6229 24.0661 22.3072 23.8384 22.0714L16.7672 15.0002L23.8384 7.92894C24.0661 7.69318 24.1921 7.37743 24.1892 7.04969C24.1864 6.72194 24.0549 6.40842 23.8232 6.17666C23.5914 5.9449 23.2779 5.81344 22.9502 5.81059C22.6224 5.80775 22.3067 5.93374 22.0709 6.16144L14.9997 13.2327L7.92841 6.16144C7.69159 5.93937 7.37767 5.81814 7.05307 5.82341C6.72847 5.82869 6.41865 5.96004 6.18917 6.18968C5.95969 6.41932 5.82856 6.72923 5.82352 7.05384C5.81847 7.37845 5.93992 7.69228 6.16216 7.92894L13.2322 15.0002L6.16091 22.0714C6.04152 22.1867 5.94629 22.3247 5.88078 22.4772C5.81527 22.6297 5.78079 22.7937 5.77934 22.9597C5.7779 23.1257 5.80953 23.2903 5.87238 23.4439C5.93523 23.5975 6.02805 23.7371 6.14541 23.8544C6.26278 23.9718 6.40234 24.0646 6.55596 24.1275C6.70958 24.1903 6.87418 24.2219 7.04016 24.2205C7.20613 24.2191 7.37016 24.1846 7.52266 24.1191C7.67517 24.0536 7.8131 23.9583 7.92841 23.8389L14.9997 16.7677Z" fill="#FFFDF0"/>
</g>
<defs>
<clipPath id="clip0_2541_16007">
<rect width="30" height="30" fill="white"/>
</clipPath>
</defs>
</svg>
