<svg width="14" height="14" viewBox="0 0 14 14" fill="none" xmlns="http://www.w3.org/2000/svg">
<path d="M5.25 10.5001C4.92917 10.5001 4.65451 10.3858 4.42604 10.1574C4.19757 9.9289 4.08333 9.65425 4.08333 9.33341V2.33341C4.08333 2.01258 4.19757 1.73793 4.42604 1.50946C4.65451 1.28098 4.92917 1.16675 5.25 1.16675H10.5C10.8208 1.16675 11.0955 1.28098 11.324 1.50946C11.5524 1.73793 11.6667 2.01258 11.6667 2.33341V9.33341C11.6667 9.65425 11.5524 9.9289 11.324 10.1574C11.0955 10.3858 10.8208 10.5001 10.5 10.5001H5.25ZM5.25 9.33341H10.5V2.33341H5.25V9.33341ZM2.91667 12.8334C2.59583 12.8334 2.32118 12.7192 2.09271 12.4907C1.86424 12.2622 1.75 11.9876 1.75 11.6667V3.50008H2.91667V11.6667H9.33333V12.8334H2.91667Z" fill="#F6F6F6"/>
</svg>
