<svg width="21" height="21" viewBox="0 0 21 21" fill="none" xmlns="http://www.w3.org/2000/svg">
<path d="M5.94141 18.3741C5.48307 18.3741 5.09071 18.2109 4.76432 17.8845C4.43793 17.5581 4.27474 17.1658 4.27474 16.7074V5.87408C3.8145 5.87408 3.44141 5.50099 3.44141 5.04075C3.44141 4.58051 3.8145 4.20742 4.27474 4.20742H7.60807C7.60807 3.74718 7.98117 3.37408 8.44141 3.37408H11.7747C12.235 3.37408 12.6081 3.74718 12.6081 4.20742H15.9414C16.4016 4.20742 16.7747 4.58051 16.7747 5.04075C16.7747 5.50099 16.4016 5.87408 15.9414 5.87408V16.7074C15.9414 17.1658 15.7782 17.5581 15.4518 17.8845C15.1254 18.2109 14.7331 18.3741 14.2747 18.3741H5.94141ZM14.2747 6.87408C14.2747 6.3218 13.827 5.87408 13.2747 5.87408H6.94141C6.38912 5.87408 5.94141 6.3218 5.94141 6.87408V15.7074C5.94141 16.2597 6.38912 16.7074 6.94141 16.7074H13.2747C13.827 16.7074 14.2747 16.2597 14.2747 15.7074V6.87408ZM7.60807 14.2074C7.60807 14.6677 7.98117 15.0408 8.44141 15.0408C8.90164 15.0408 9.27474 14.6677 9.27474 14.2074V8.37408C9.27474 7.91385 8.90164 7.54075 8.44141 7.54075C7.98117 7.54075 7.60807 7.91385 7.60807 8.37408V14.2074ZM10.9414 14.2074C10.9414 14.6677 11.3145 15.0408 11.7747 15.0408C12.235 15.0408 12.6081 14.6677 12.6081 14.2074V8.37408C12.6081 7.91385 12.235 7.54075 11.7747 7.54075C11.3145 7.54075 10.9414 7.91385 10.9414 8.37408V14.2074Z" fill="#FFFDF0"/>
</svg>
