<svg width="32" height="32" viewBox="0 0 32 32" fill="none" xmlns="http://www.w3.org/2000/svg">
<mask id="mask0_2276_2267" style="mask-type:alpha" maskUnits="userSpaceOnUse" x="0" y="0" width="32" height="32">
<rect width="32" height="32" fill="#D9D9D9"/>
</mask>
<g mask="url(#mask0_2276_2267)">
<path d="M10.6667 26.6667C9.93333 26.6667 9.30556 26.4056 8.78333 25.8833C8.26111 25.3611 8 24.7333 8 24V20H12V17C11.2222 16.9556 10.4833 16.7833 9.78333 16.4833C9.08333 16.1833 8.44444 15.7333 7.86667 15.1333V13.6667H6.33333L2 9.33334C2.8 8.31111 3.78889 7.58889 4.96667 7.16667C6.14444 6.74445 7.33333 6.53334 8.53333 6.53334C9.13333 6.53334 9.71667 6.57778 10.2833 6.66667C10.85 6.75556 11.4222 6.92222 12 7.16667V5.33334H28V22.6667C28 23.7778 27.6111 24.7222 26.8333 25.5C26.0556 26.2778 25.1111 26.6667 24 26.6667H10.6667ZM14.6667 20H22.6667V22.6667C22.6667 23.0444 22.7944 23.3611 23.05 23.6167C23.3056 23.8722 23.6222 24 24 24C24.3778 24 24.6944 23.8722 24.95 23.6167C25.2056 23.3611 25.3333 23.0444 25.3333 22.6667V8H14.6667V8.8L22.6667 16.8V18.6667H20.8L17 14.8667L16.7333 15.1333C16.4222 15.4444 16.0944 15.7222 15.75 15.9667C15.4056 16.2111 15.0444 16.4 14.6667 16.5333V20ZM7.46667 11H10.5333V13.8667C10.8 14.0444 11.0778 14.1667 11.3667 14.2333C11.6556 14.3 11.9556 14.3333 12.2667 14.3333C12.7778 14.3333 13.2389 14.2556 13.65 14.1C14.0611 13.9444 14.4667 13.6667 14.8667 13.2667L15.1333 13L13.2667 11.1333C12.6222 10.4889 11.9 10.0056 11.1 9.68334C10.3 9.36111 9.44444 9.2 8.53333 9.2C8.08889 9.2 7.66667 9.23334 7.26667 9.3C6.86667 9.36667 6.46667 9.46667 6.06667 9.6L7.46667 11ZM20 22.6667H10.6667V24H20.2C20.1333 23.8 20.0833 23.5889 20.05 23.3667C20.0167 23.1444 20 22.9111 20 22.6667Z" fill="#77C7B9"/>
</g>
</svg>
