<svg width="25" height="25" viewBox="0 0 25 25" fill="none" xmlns="http://www.w3.org/2000/svg">
<g clip-path="url(#clip0_2908_19889)">
<path fill-rule="evenodd" clip-rule="evenodd" d="M21.7646 21.2998C21.678 21.4726 21.545 21.6179 21.3806 21.7194C21.2161 21.821 21.0266 21.8748 20.8333 21.8748H5.72916C5.07083 21.8748 4.75833 21.2883 4.47916 20.7862C4.17918 20.2461 3.92214 19.6833 3.71041 19.1029C3.18958 17.6821 2.7552 15.6727 3.13958 13.3706C3.37638 11.9047 3.88059 10.4948 4.62708 9.21124C5.30937 8.05603 6.63854 7.73207 7.7427 8.02686L10.0208 8.63728L11.099 4.61228C11.3135 3.81166 11.8373 3.12905 12.5551 2.71461C12.9105 2.5094 13.3029 2.37621 13.7098 2.32264C14.1167 2.26907 14.5301 2.29616 14.9266 2.40238C15.323 2.5086 15.6946 2.69187 16.0202 2.94171C16.3458 3.19155 16.619 3.50308 16.8242 3.8585C17.0294 4.21393 17.1626 4.60629 17.2162 5.01319C17.2698 5.42009 17.2427 5.83356 17.1365 6.22999L16.0573 10.255L17.4719 10.6342C19.1948 11.0956 20.0865 12.8414 19.8448 14.4414C19.7302 15.2019 19.6844 15.9487 19.7771 16.4914C19.8958 17.1894 20.3302 18.0925 20.8031 18.8935C21.199 19.5644 21.574 20.0831 21.6531 20.1894C21.8896 20.5102 21.9458 20.9383 21.7646 21.2998ZM14.3875 4.41436C14.2553 4.37893 14.1174 4.36991 13.9817 4.38781C13.846 4.4057 13.7151 4.45017 13.5966 4.51866C13.4781 4.58715 13.3743 4.67833 13.291 4.78698C13.2078 4.89563 13.1468 5.01962 13.1115 5.15186L11.7635 10.1831C11.7281 10.3153 11.667 10.4391 11.5837 10.5477C11.5004 10.6562 11.3966 10.7473 11.2781 10.8157C11.1596 10.8841 11.0288 10.9284 10.8931 10.9463C10.7575 10.9641 10.6196 10.955 10.4875 10.9196L7.20416 10.0394C6.8052 9.93207 6.53125 10.0842 6.42187 10.2696C6.1311 10.7654 5.88599 11.2867 5.68958 11.8269L17.6792 15.0071C17.7052 14.7008 17.7427 14.405 17.7844 14.13C17.8937 13.4102 17.475 12.7914 16.9323 12.6467L14.5125 11.9977C14.3803 11.9623 14.2565 11.9012 14.1479 11.8179C14.0394 11.7346 13.9483 11.6307 13.8799 11.5122C13.8116 11.3937 13.7672 11.2629 13.7494 11.1273C13.7315 10.9916 13.7406 10.8538 13.776 10.7217L15.124 5.6904C15.1952 5.42367 15.1577 5.13956 15.0196 4.90049C14.8815 4.66141 14.6542 4.4859 14.3875 4.41436ZM17.7958 17.1935L5.17291 13.8446C4.90208 15.6404 5.2427 17.2279 5.66666 18.3862C5.88333 18.9789 6.11875 19.4508 6.29687 19.7706L6.30937 19.7914H8.0802C7.6875 18.9664 7.28541 17.8477 7.27812 16.6737C7.27284 16.5343 7.29562 16.3953 7.34509 16.2649C7.39457 16.1344 7.46974 16.0153 7.56614 15.9145C7.66255 15.8136 7.77822 15.7332 7.9063 15.6779C8.03438 15.6226 8.17225 15.5937 8.31175 15.5927C8.45124 15.5917 8.58951 15.6188 8.71835 15.6722C8.84719 15.7257 8.96398 15.8045 9.06178 15.904C9.15959 16.0034 9.23642 16.1215 9.28772 16.2513C9.33902 16.381 9.36374 16.5197 9.36041 16.6592C9.36562 17.4675 9.6802 18.3404 10.0437 19.0633C10.1875 19.3508 10.3323 19.5998 10.4521 19.7925H18.9156C18.4958 19.0633 18.0198 18.1154 17.7958 17.1925" fill="#FFFDF0"/>
</g>
<defs>
<clipPath id="clip0_2908_19889">
<rect width="25" height="25" fill="white"/>
</clipPath>
</defs>
</svg>
