<svg width="32" height="32" viewBox="0 0 32 32" fill="none" xmlns="http://www.w3.org/2000/svg">
<path d="M29.48 28.6133L3.18665 2.30664L1.47998 3.99997L8.41331 10.9333L7.99998 12H9.47998L11.48 14H2.66665V16H13.48L18 20.4933C17.84 20.8133 17.7333 21.1333 17.6533 21.4666C16.3866 20.92 15.2133 21.0666 14.3466 21.4533C13.8 19.08 11.72 17.3333 9.25331 17.3333C6.35998 17.3333 3.99998 19.72 3.99998 22.6666C3.99998 25.6133 6.35998 28 9.25331 28C12 28 14.24 25.84 14.4533 23.0933C14.9066 22.7733 16.0933 22.1733 17.5466 23.12C17.7866 25.8533 20 28 22.7466 28C23.5466 28 24.2933 27.8133 24.96 27.48L27.7866 30.3066L29.48 28.6133ZM9.25331 26.48C7.17331 26.48 5.50665 24.7733 5.50665 22.6666C5.50665 20.56 7.18665 18.8533 9.25331 18.8533C11.3333 18.8533 13 20.56 13 22.6666C13 24.7733 11.3333 26.48 9.25331 26.48ZM22.7466 26.48C20.6666 26.48 19 24.7733 19 22.6666C19 22.32 19.0533 22 19.1466 21.6666L23.7866 26.3066C23.4533 26.4133 23.12 26.48 22.7466 26.48ZM29.3333 16H20.2666L18.2666 14H29.3333V16ZM22.7466 17.3333C25.64 17.3333 28 19.72 28 22.6666C28 23 27.96 23.3333 27.9066 23.64L26.4533 22.1866C26.3537 21.3499 25.9765 20.5708 25.3819 19.9737C24.7873 19.3767 24.0096 18.9963 23.1733 18.8933L21.72 17.4533C22.0533 17.3733 22.4 17.3333 22.7466 17.3333ZM16.2666 12L10.2933 5.99997L11.24 3.57331C11.5066 2.89331 12.2533 2.51997 12.96 2.71997L13.0266 2.73331L16 3.71997L18.96 2.73331C19.6666 2.50664 20.4266 2.85331 20.72 3.50664L20.7466 3.57331L24 12H16.2666Z" fill="#FFFDF0"/>
</svg>
