<svg width="22" height="24" viewBox="0 0 22 24" fill="none" xmlns="http://www.w3.org/2000/svg">
<path d="M4.78125 13.25L12.7866 21.2554C13.1796 21.6483 13.1768 22.2863 12.7803 22.6758L12.4258 23.0241C12.0343 23.4087 11.406 23.406 11.0179 23.0179L0.707107 12.7071C0.316583 12.3166 0.316583 11.6834 0.707107 11.2929L11.0179 0.982127C11.406 0.594044 12.0343 0.591264 12.4258 0.975897L12.7803 1.3242C13.1768 1.71368 13.1796 2.35167 12.7866 2.74464L4.78125 10.75H21C21.5523 10.75 22 11.1977 22 11.75V12.25C22 12.8023 21.5523 13.25 21 13.25H4.78125Z" fill="#FFFDF0"/>
</svg>
