<svg width="24" height="24" viewBox="0 0 35 36" fill="none" xmlns="http://www.w3.org/2000/svg">
<mask id="mask0_3154_20313" style="mask-type:alpha" maskUnits="userSpaceOnUse" x="0" y="0" width="35" height="36">
<rect y="0.5" width="35" height="35" fill="#D9D9D9"/>
</mask>
<g mask="url(#mask0_3154_20313)">
<path d="M5.83341 29.6667C5.03133 29.6667 4.3447 29.3812 3.77352 28.81C3.20234 28.2388 2.91675 27.5522 2.91675 26.7501V9.25008C2.91675 8.448 3.20234 7.76137 3.77352 7.19019C4.3447 6.61901 5.03133 6.33341 5.83341 6.33341H20.5626C20.4654 6.81953 20.4167 7.30564 20.4167 7.79175C20.4167 8.27786 20.4654 8.76397 20.5626 9.25008H5.83341L17.5001 16.5417L22.823 13.224C23.1633 13.54 23.5339 13.8134 23.935 14.0444C24.336 14.2753 24.7553 14.4758 25.1928 14.6459L17.5001 19.4584L5.83341 12.1667V26.7501H29.1667V14.9376C29.7258 14.8161 30.2483 14.6459 30.7345 14.4272C31.2206 14.2084 31.6702 13.9411 32.0834 13.6251V26.7501C32.0834 27.5522 31.7978 28.2388 31.2266 28.81C30.6555 29.3812 29.9688 29.6667 29.1667 29.6667H5.83341ZM27.7084 12.1667C26.4931 12.1667 25.4601 11.7414 24.6095 10.8907C23.7588 10.04 23.3334 9.00703 23.3334 7.79175C23.3334 6.57647 23.7588 5.54348 24.6095 4.69279C25.4601 3.8421 26.4931 3.41675 27.7084 3.41675C28.9237 3.41675 29.9567 3.8421 30.8074 4.69279C31.6581 5.54348 32.0834 6.57647 32.0834 7.79175C32.0834 9.00703 31.6581 10.04 30.8074 10.8907C29.9567 11.7414 28.9237 12.1667 27.7084 12.1667Z" fill="#C6C6C7"/>
</g>
</svg>
