<svg width="25" height="25" viewBox="0 0 25 25" fill="none" xmlns="http://www.w3.org/2000/svg">
<mask id="mask0_2629_10682" style="mask-type:alpha" maskUnits="userSpaceOnUse" x="0" y="0" width="25" height="25">
<rect width="25" height="25" fill="#D9D9D9"/>
</mask>
<g mask="url(#mask0_2629_10682)">
<path d="M12.5003 24.2709L9.01074 20.8334H4.16699V15.9897L0.729492 12.5001L4.16699 9.0105V4.16675H9.01074L12.5003 0.729248L15.9899 4.16675H20.8337V9.0105L24.2712 12.5001L20.8337 15.9897V20.8334H15.9899L12.5003 24.2709ZM12.5003 21.3542L15.1045 18.7501H18.7503V15.1042L21.3545 12.5001L18.7503 9.89592V6.25008H15.1045L12.5003 3.64591L9.89616 6.25008H6.25033V9.89592L3.64616 12.5001L6.25033 15.1042V18.7501H9.89616L12.5003 21.3542ZM9.45345 16.9272L12.5003 15.0782L15.5472 16.9272L14.7399 13.4636L17.4482 11.1199L13.8805 10.8334L12.5003 7.55216L11.1201 10.8334L7.55241 11.1199L10.2607 13.4636L9.45345 16.9272Z" fill="#FFFDF0"/>
</g>
</svg>
