<svg width="24" height="26" viewBox="0 0 24 26" fill="none" xmlns="http://www.w3.org/2000/svg">
<path d="M12 21.3334C11.45 21.3334 10.9792 21.1294 10.5875 20.7214C10.1958 20.3134 10 19.8229 10 19.25C10 18.6771 10.1958 18.1867 10.5875 17.7787C10.9792 17.3707 11.45 17.1667 12 17.1667C12.55 17.1667 13.0208 17.3707 13.4125 17.7787C13.8042 18.1867 14 18.6771 14 19.25C14 19.8229 13.8042 20.3134 13.4125 20.7214C13.0208 21.1294 12.55 21.3334 12 21.3334ZM12 15.0834C11.45 15.0834 10.9792 14.8794 10.5875 14.4714C10.1958 14.0634 10 13.5729 10 13C10 12.4271 10.1958 11.9367 10.5875 11.5287C10.9792 11.1207 11.45 10.9167 12 10.9167C12.55 10.9167 13.0208 11.1207 13.4125 11.5287C13.8042 11.9367 14 12.4271 14 13C14 13.5729 13.8042 14.0634 13.4125 14.4714C13.0208 14.8794 12.55 15.0834 12 15.0834ZM12 8.83335C11.45 8.83335 10.9792 8.62936 10.5875 8.22137C10.1958 7.81339 10 7.32294 10 6.75002C10 6.1771 10.1958 5.68665 10.5875 5.27867C10.9792 4.87068 11.45 4.66669 12 4.66669C12.55 4.66669 13.0208 4.87068 13.4125 5.27867C13.8042 5.68665 14 6.1771 14 6.75002C14 7.32294 13.8042 7.81339 13.4125 8.22137C13.0208 8.62936 12.55 8.83335 12 8.83335Z" fill="#6E6E73"/>
</svg>
