<svg width="26" height="25" viewBox="0 0 26 25" fill="none" xmlns="http://www.w3.org/2000/svg">
<g clip-path="url(#clip0_2908_19112)">
<path fill-rule="evenodd" clip-rule="evenodd" d="M4.66665 4.1665C4.11411 4.1665 3.58421 4.386 3.19351 4.7767C2.80281 5.1674 2.58331 5.6973 2.58331 6.24984V18.7498C2.58331 19.3024 2.80281 19.8323 3.19351 20.223C3.58421 20.6137 4.11411 20.8332 4.66665 20.8332H21.3333C21.8858 20.8332 22.4158 20.6137 22.8065 20.223C23.1972 19.8323 23.4166 19.3024 23.4166 18.7498V6.24984C23.4166 5.6973 23.1972 5.1674 22.8065 4.7767C22.4158 4.386 21.8858 4.1665 21.3333 4.1665H4.66665ZM4.66665 6.24984H21.3333V18.7498H4.66665V6.24984ZM11.1771 10.1561C11.1771 10.6396 10.985 11.1032 10.6431 11.4451C10.3013 11.7869 9.83761 11.979 9.35415 11.979C8.87068 11.979 8.40701 11.7869 8.06515 11.4451C7.72329 11.1032 7.53123 10.6396 7.53123 10.1561C7.53123 9.67262 7.72329 9.20895 8.06515 8.86709C8.40701 8.52523 8.87068 8.33317 9.35415 8.33317C9.83761 8.33317 10.3013 8.52523 10.6431 8.86709C10.985 9.20895 11.1771 9.67262 11.1771 10.1561ZM5.70831 15.104C5.70831 14.4133 5.98268 13.751 6.47106 13.2626C6.95943 12.7742 7.62181 12.4998 8.31248 12.4998H10.3958C10.7378 12.4998 11.0764 12.5672 11.3924 12.6981C11.7083 12.8289 11.9954 13.0208 12.2372 13.2626C12.4791 13.5044 12.6709 13.7915 12.8017 14.1074C12.9326 14.4234 13 14.762 13 15.104V15.6248C13 15.9011 12.8902 16.1661 12.6949 16.3614C12.4995 16.5568 12.2346 16.6665 11.9583 16.6665C11.682 16.6665 11.4171 16.5568 11.2217 16.3614C11.0264 16.1661 10.9166 15.9011 10.9166 15.6248V15.104C10.9166 14.9659 10.8618 14.8334 10.7641 14.7357C10.6664 14.638 10.5339 14.5832 10.3958 14.5832H8.31248C8.17435 14.5832 8.04187 14.638 7.94419 14.7357C7.84652 14.8334 7.79165 14.9659 7.79165 15.104V15.6248C7.79165 15.9011 7.6819 16.1661 7.48655 16.3614C7.2912 16.5568 7.02625 16.6665 6.74998 16.6665C6.47371 16.6665 6.20876 16.5568 6.01341 16.3614C5.81806 16.1661 5.70831 15.9011 5.70831 15.6248V15.104ZM14.0416 11.4582C14.0416 11.1819 14.1514 10.917 14.3467 10.7216C14.5421 10.5263 14.807 10.4165 15.0833 10.4165H17.1666C17.4429 10.4165 17.7079 10.5263 17.9032 10.7216C18.0986 10.917 18.2083 11.1819 18.2083 11.4582C18.2083 11.7344 18.0986 11.9994 17.9032 12.1947C17.7079 12.3901 17.4429 12.4998 17.1666 12.4998H15.0833C14.807 12.4998 14.5421 12.3901 14.3467 12.1947C14.1514 11.9994 14.0416 11.7344 14.0416 11.4582ZM15.0833 13.5415C14.807 13.5415 14.5421 13.6513 14.3467 13.8466C14.1514 14.042 14.0416 14.3069 14.0416 14.5832C14.0416 14.8594 14.1514 15.1244 14.3467 15.3197C14.5421 15.5151 14.807 15.6248 15.0833 15.6248H19.25C19.5262 15.6248 19.7912 15.5151 19.9865 15.3197C20.1819 15.1244 20.2916 14.8594 20.2916 14.5832C20.2916 14.3069 20.1819 14.042 19.9865 13.8466C19.7912 13.6513 19.5262 13.5415 19.25 13.5415H15.0833Z" fill="#FFFDF0"/>
</g>
<defs>
<clipPath id="clip0_2908_19112">
<rect width="25" height="25" fill="white" transform="translate(0.5)"/>
</clipPath>
</defs>
</svg>
