<svg width="141" height="46" viewBox="0 0 141 46" fill="none" xmlns="http://www.w3.org/2000/svg">
<rect width="141" height="46" rx="6" fill="#4A4A4E"/>
<path d="M56.8961 23.872L56.3841 22.896C58.8001 21.728 60.2081 20.384 60.2721 18.592H56.8801V17.552H60.2881V15.648H61.4241V17.552H64.8321V18.592H61.4241C61.4081 19.152 61.3121 19.68 61.1201 20.16L65.3441 22.736L64.7681 23.728L60.6081 21.104C59.8561 22.176 58.6081 23.056 56.8961 23.872ZM67.3281 30.4V15.648H68.4641V30.4H67.3281ZM65.9201 24.784L66.0481 25.808C64.6561 26 62.9921 26.144 61.4081 26.224C61.3121 27.6 61.1681 29.04 60.9921 30.528L59.8401 30.4C60.0321 28.976 60.1761 27.616 60.2561 26.272C59.7281 26.288 59.2321 26.304 58.7521 26.304H56.1921L56.1281 25.264H58.8161C60.6401 25.264 63.6001 25.088 65.9201 24.784ZM83.524 24.64L77.764 20.704C76.82 22.128 75.108 23.44 72.532 24.64L72.004 23.648C75.796 21.856 77.588 19.936 77.588 17.648V16.48H78.724V17.648C78.724 18.368 78.58 19.056 78.292 19.728L84.164 23.696L83.524 24.64ZM78.66 24.224V28.16H84.996V29.2H71.172V28.16H77.524V24.224H78.66Z" fill="#C6C6C7"/>
</svg>
