<svg width="32" height="32" viewBox="0 0 32 32" fill="none" xmlns="http://www.w3.org/2000/svg">
<g clip-path="url(#clip0_2629_10738)">
<path fill-rule="evenodd" clip-rule="evenodd" d="M18.2118 5.53507C18.6247 5.12213 19.1774 4.87902 19.7608 4.85375C20.3442 4.82848 20.9159 5.02288 21.3629 5.39857L21.5111 5.53507L26.4613 10.4852C26.8739 10.8981 27.1168 11.4506 27.1421 12.0337C27.1673 12.6168 26.9731 13.1883 26.5978 13.6352L26.4613 13.7846L14.4283 25.8176C14.0409 26.2049 13.5296 26.4436 12.9839 26.4919L12.7786 26.5001H6.67345C6.38316 26.5001 6.10308 26.3929 5.88692 26.1991C5.67076 26.0054 5.53373 25.7386 5.50212 25.4501L5.49512 25.3217V19.2166C5.49525 18.6688 5.68812 18.1385 6.03995 17.7186L6.17995 17.5669L18.2118 5.53507ZM16.1981 10.8481L7.82845 19.2177V24.1667H12.7798L21.1494 15.7971L16.1993 10.8469L16.1981 10.8481ZM19.8615 7.18474L17.8478 9.1984L22.7979 14.1486L24.8116 12.1349L19.8615 7.18474Z" fill="#FFFDF0"/>
</g>
<defs>
<clipPath id="clip0_2629_10738">
<rect width="28" height="28" fill="white" transform="translate(2 2)"/>
</clipPath>
</defs>
</svg>
