<svg width="32" height="32" viewBox="0 0 32 32" fill="none" xmlns="http://www.w3.org/2000/svg">
<g clip-path="url(#clip0_2939_13244)">
<path fill-rule="evenodd" clip-rule="evenodd" d="M24.3058 11.1316C24.6073 11.8596 24.7625 12.6398 24.7625 13.4277C24.7625 13.5734 24.7572 13.7185 24.7468 13.8627C24.7301 14.0923 24.8569 14.3104 25.065 14.4088C26.0228 14.8616 26.8478 15.5493 27.4656 16.3975C27.701 16.7206 28.2229 16.6897 28.338 16.3069C28.787 14.8136 28.8805 13.236 28.6111 11.7001C28.3417 10.1642 27.7169 8.7126 26.7865 7.46123C25.8561 6.20986 24.646 5.19341 23.2528 4.49307C21.8596 3.79272 20.3219 3.4279 18.7625 3.42773C16.9558 3.42761 15.1827 3.91698 13.6318 4.84385C12.0809 5.77072 10.8101 7.10046 9.95443 8.69175C9.09875 10.283 8.69017 12.0764 8.77213 13.8813C8.8479 15.5501 9.34036 17.171 10.2017 18.5973C10.3245 18.8007 10.2992 19.0631 10.1311 19.2311L4.01453 25.3464C3.63934 25.7216 3.42856 26.2305 3.42856 26.7611C3.42856 27.2917 3.63934 27.8005 4.01453 28.1757C4.38972 28.5509 4.8986 28.7617 5.4292 28.7617C5.9598 28.7617 6.46867 28.5509 6.84387 28.1757L12.9592 22.0591C13.1272 21.8911 13.3896 21.8657 13.593 21.9885C14.3148 22.4243 15.0873 22.7661 15.8917 23.0071C16.3014 23.1299 16.6341 22.6791 16.4855 22.278C16.2335 21.5979 16.0959 20.8623 16.0959 20.0946C16.0959 19.8072 16.1152 19.5244 16.1525 19.2473C16.1832 19.0193 16.0694 18.7943 15.8679 18.6833C15.3774 18.4132 14.9229 18.0734 14.5199 17.6704C13.3947 16.5452 12.7625 15.019 12.7625 13.4277C12.7625 12.6398 12.9177 11.8596 13.2193 11.1316C13.5208 10.4037 13.9627 9.74224 14.5199 9.18509C15.077 8.62794 15.7385 8.18599 16.4664 7.88446C17.1944 7.58293 17.9746 7.42773 18.7625 7.42773C19.5505 7.42773 20.3307 7.58293 21.0586 7.88446C21.7866 8.18599 22.448 8.62794 23.0052 9.18509C23.5623 9.74224 24.0043 10.4037 24.3058 11.1316Z" fill="#FFFDF0"/>
<path d="M23.3779 28.1569C23.1451 27.9241 22.8293 27.7933 22.5001 27.7933C22.1708 27.7933 21.8551 27.9241 21.6223 28.1569C21.3895 28.3897 21.2587 28.7054 21.2587 29.0347C21.2587 29.3639 21.3895 29.6797 21.6223 29.9125C21.8551 30.1453 22.1708 30.2761 22.5001 30.2761C22.8293 30.2761 23.1451 30.1453 23.3779 29.9125C23.6107 29.6797 23.7415 29.3639 23.7415 29.0347C23.7415 28.7054 23.6107 28.3897 23.3779 28.1569Z" fill="#FFFDF0"/>
<path d="M25.3649 17.0299C24.5586 16.3642 23.5457 16 22.5001 16C21.3066 16 20.162 16.4741 19.318 17.318C18.4741 18.162 18 19.3066 18 20.5001C18 20.8293 18.1308 21.1451 18.3636 21.3779C18.5964 21.6107 18.9122 21.7415 19.2414 21.7415C19.5706 21.7415 19.8864 21.6107 20.1192 21.3779C20.352 21.1451 20.4828 20.8293 20.4828 20.5001C20.4826 20.1334 20.5822 19.7736 20.771 19.4593C20.9599 19.1449 21.2308 18.888 21.5546 18.716C21.8785 18.544 22.243 18.4635 22.6092 18.4831C22.9753 18.5027 23.3292 18.6217 23.6329 18.8273C23.9365 19.0328 24.1784 19.3172 24.3326 19.6499C24.4868 19.9826 24.5475 20.351 24.5081 20.7155C24.4688 21.0801 24.3308 21.427 24.1091 21.7191C23.8875 22.0112 23.5904 22.2373 23.2499 22.3733C22.4132 22.7098 21.2587 23.5688 21.2587 25.0001V25.3105L21.2674 25.4557C21.3047 25.7699 21.4607 26.058 21.7033 26.2611C21.9459 26.4641 22.257 26.5669 22.5728 26.5484C22.8887 26.5298 23.1855 26.3914 23.4027 26.1613C23.62 25.9312 23.7411 25.6269 23.7415 25.3105L23.7328 25.1503C23.7315 25.0684 23.7402 24.989 23.7948 24.9269C23.9011 24.8169 24.0304 24.7316 24.1735 24.6774C25.1441 24.2885 25.949 23.5738 26.4499 22.656C26.9509 21.7382 27.1166 20.6746 26.9186 19.6479C26.7206 18.6213 26.1713 17.6956 25.3649 17.0299Z" fill="#FFFDF0"/>
</g>
<defs>
<clipPath id="clip0_2939_13244">
<rect width="32" height="32" fill="white" transform="matrix(-1 0 0 1 32 0)"/>
</clipPath>
</defs>
</svg>
