<svg width="41" height="20" viewBox="0 0 41 20" fill="none" xmlns="http://www.w3.org/2000/svg">
<rect width="41" height="20" rx="10" fill="#2F9C89"/>
<path d="M11.0056 12.13L11.8956 11.81C12.1856 12.57 12.7656 13.25 13.9456 13.25C15.1156 13.25 15.8156 12.64 15.8156 11.79C15.8156 10.94 15.1456 10.26 13.7956 10.26H12.7756V9.39H13.7956C14.9956 9.39 15.6256 8.8 15.6256 7.98C15.6256 7.15 14.9556 6.65 13.9256 6.65C12.9056 6.65 12.4056 7.29 12.1356 7.96L11.2356 7.62C11.6056 6.64 12.4456 5.75 13.9256 5.75C15.4756 5.75 16.6056 6.57 16.6056 7.93C16.6056 8.92 16.0256 9.54 15.2856 9.82C16.1556 10.09 16.8056 10.81 16.8056 11.83C16.8056 13.22 15.6356 14.15 13.9456 14.15C12.3056 14.15 11.3756 13.23 11.0056 12.13ZM21.0975 14.15C19.4775 14.15 18.1575 12.99 18.1575 10.73V9.16C18.1575 6.92 19.4775 5.75 21.0975 5.75C22.7175 5.75 24.0475 6.92 24.0475 9.16V10.73C24.0475 12.99 22.7175 14.15 21.0975 14.15ZM21.0975 13.25C22.1875 13.25 23.0375 12.43 23.0375 10.68V9.22C23.0375 7.47 22.1875 6.65 21.0975 6.65C20.0075 6.65 19.1575 7.47 19.1575 9.22V10.68C19.1575 12.43 20.0075 13.25 21.0975 13.25ZM25.1439 12.7L25.9239 12.19C26.3539 12.96 27.0539 13.29 27.7739 13.29C28.4939 13.29 29.0739 13.03 29.0739 12.49C29.0739 11.95 28.6339 11.74 28.0239 11.57L27.2739 11.36C26.3539 11.12 25.5439 10.66 25.5439 9.62C25.5439 8.56 26.4439 7.97 27.6339 7.97C28.7639 7.97 29.5339 8.5 30.0239 9.28L29.2739 9.81C28.8839 9.21 28.3039 8.83 27.6139 8.83C26.9339 8.83 26.5139 9.14 26.5139 9.62C26.5139 10.09 26.8539 10.33 27.4639 10.5L28.2039 10.71C29.1239 10.96 30.0539 11.38 30.0539 12.49C30.0539 13.61 28.9639 14.15 27.7639 14.15C26.5839 14.15 25.6439 13.66 25.1439 12.7Z" fill="#FFFDF0"/>
</svg>
