<svg width="25" height="25" viewBox="0 0 25 25" fill="none" xmlns="http://www.w3.org/2000/svg">
<mask id="mask0_2629_10688" style="mask-type:alpha" maskUnits="userSpaceOnUse" x="0" y="0" width="25" height="25">
<rect width="25" height="25" fill="#D9D9D9"/>
</mask>
<g mask="url(#mask0_2629_10688)">
<path d="M12.5 22.9166L12.2396 19.7916H11.9792C9.51389 19.7916 7.42188 18.9322 5.70313 17.2135C3.98438 15.4947 3.125 13.4027 3.125 10.9374C3.125 8.47214 3.98438 6.38013 5.70313 4.66138C7.42188 2.94263 9.51389 2.08325 11.9792 2.08325C13.2118 2.08325 14.362 2.31329 15.4297 2.77336C16.4974 3.23343 17.4349 3.86711 18.2422 4.6744C19.0495 5.48169 19.6832 6.41919 20.1432 7.4869C20.6033 8.55461 20.8333 9.70478 20.8333 10.9374C20.8333 12.2395 20.6207 13.4895 20.1953 14.6874C19.77 15.8853 19.1884 16.9964 18.4505 18.0208C17.7127 19.0451 16.8359 19.9739 15.8203 20.8072C14.8047 21.6405 13.6979 22.3437 12.5 22.9166ZM14.5833 19.1145C15.816 18.0728 16.8186 16.8532 17.5911 15.4556C18.3637 14.0581 18.75 12.552 18.75 10.9374C18.75 9.04506 18.0946 7.4435 16.7839 6.13273C15.4731 4.82197 13.8715 4.16659 11.9792 4.16659C10.0868 4.16659 8.48524 4.82197 7.17448 6.13273C5.86372 7.4435 5.20833 9.04506 5.20833 10.9374C5.20833 12.8298 5.86372 14.4313 7.17448 15.7421C8.48524 17.0529 10.0868 17.7083 11.9792 17.7083H14.5833V19.1145ZM11.9531 16.6405C12.2483 16.6405 12.5 16.5364 12.7083 16.328C12.9167 16.1197 13.0208 15.868 13.0208 15.5728C13.0208 15.2777 12.9167 15.026 12.7083 14.8176C12.5 14.6093 12.2483 14.5051 11.9531 14.5051C11.658 14.5051 11.4063 14.6093 11.1979 14.8176C10.9896 15.026 10.8854 15.2777 10.8854 15.5728C10.8854 15.868 10.9896 16.1197 11.1979 16.328C11.4063 16.5364 11.658 16.6405 11.9531 16.6405ZM11.1979 13.3333H12.7604C12.7604 12.8124 12.8125 12.4478 12.9167 12.2395C13.0208 12.0312 13.3507 11.6492 13.9063 11.0937C14.2188 10.7812 14.4792 10.4426 14.6875 10.078C14.8958 9.71346 15 9.32284 15 8.90617C15 8.02075 14.7005 7.35669 14.1016 6.91398C13.5026 6.47127 12.7951 6.24992 11.9792 6.24992C11.2153 6.24992 10.5729 6.46259 10.0521 6.88794C9.53125 7.31329 9.16667 7.82978 8.95833 8.43742L10.4167 9.01034C10.5035 8.7152 10.6684 8.4244 10.9115 8.13794C11.1545 7.85148 11.5104 7.70825 11.9792 7.70825C12.4479 7.70825 12.7995 7.83846 13.0339 8.09888C13.2682 8.35929 13.3854 8.64575 13.3854 8.95825C13.3854 9.25339 13.2986 9.51815 13.125 9.75252C12.9514 9.9869 12.7431 10.2256 12.5 10.4687C11.8924 10.9895 11.5234 11.4018 11.3932 11.7056C11.263 12.0095 11.1979 12.552 11.1979 13.3333Z" fill="#FFFDF0"/>
</g>
</svg>
