<svg width="32" height="32" viewBox="0 0 32 32" fill="none" xmlns="http://www.w3.org/2000/svg">
<path d="M16 0.853516L10.9733 4.00018H6.66663V6.66685L3.95996 8.38685C3.18663 8.85352 2.66663 9.69352 2.66663 10.6668V24.0002C2.66663 24.7074 2.94758 25.3857 3.44767 25.8858C3.94777 26.3859 4.62605 26.6669 5.33329 26.6669H26.6666C28.1466 26.6669 29.3333 25.4802 29.3333 24.0002V10.6668C29.3333 9.69352 28.8133 8.85352 28.04 8.38685L25.3333 6.66685V4.00018H21.0266M9.33329 6.66685H22.6666V13.1735L16 17.3335L9.33329 13.1735M10.6666 8.00018V10.0002H21.3333V8.00018M6.66663 9.84018V11.5068L5.33329 10.6668M25.3333 9.84018L26.6666 10.6668L25.3333 11.5068M10.6666 11.3335V13.3335H21.3333V11.3335H10.6666Z" fill="#FFFDF0"/>
</svg>
