<svg width="141" height="46" viewBox="0 0 141 46" fill="none" xmlns="http://www.w3.org/2000/svg">
<rect width="141" height="46" rx="6" fill="#2F9C89"/>
<path d="M52.6523 18.56H54.9563V20.016H52.6523V23.328H51.0523V15.616H52.6523V18.56ZM49.5323 21.088L49.7243 22.48C47.9483 22.768 45.7563 22.976 43.6763 22.976H41.1163V16.32H48.3323V17.744H42.7323V21.552H43.9643C45.6123 21.552 47.6923 21.376 49.5323 21.088ZM44.7323 25.824H51.0523V24.112H52.6523V30.464H43.1483V24.112H44.7323V25.824ZM44.7323 27.232V29.04H51.0523V27.232H44.7323ZM67.8241 15.616V18.72H70.1121V20.176H67.8241V23.712H66.2241V15.616H67.8241ZM63.9361 23.552L59.9841 20.944C59.2321 22.032 58.0481 22.992 56.4001 23.872L55.6481 22.592C58.1921 21.168 59.4081 19.696 59.4081 17.744H56.2241V16.32H64.1601V17.744H60.9601C60.9601 18.416 60.8481 19.056 60.6401 19.648L64.7361 22.256L63.9361 23.552ZM61.5041 24.496H64.6401C66.8001 24.496 68.1601 25.776 68.1601 27.552C68.1601 29.344 66.8001 30.624 64.6401 30.624H61.5041C59.3761 30.624 58.0001 29.344 58.0001 27.552C58.0001 25.776 59.3761 24.496 61.5041 24.496ZM61.7761 29.184H64.3841C65.8401 29.184 66.5761 28.496 66.5761 27.552C66.5761 26.608 65.8401 25.92 64.3841 25.92H61.7761C60.3201 25.92 59.5841 26.608 59.5841 27.552C59.5841 28.496 60.3201 29.184 61.7761 29.184ZM78.004 25.072L75.252 22.224C74.708 23.216 73.876 24.176 72.628 25.072L71.7 23.856C74.244 21.968 74.644 20 74.644 17.888V16.528H76.196V17.888C76.196 18.848 76.116 19.776 75.86 20.688L78.132 22.96C79.764 21.344 80.036 19.68 80.036 17.888V16.528H81.604V17.888C81.604 18.848 81.524 19.792 81.268 20.704L84.468 23.968L83.364 25.072L80.644 22.224C80.1 23.216 79.268 24.176 78.004 25.072ZM71.108 29.36V27.888H85.06V29.36H71.108ZM97.4159 30.464V15.616H98.9999V30.464H97.4159ZM92.8399 18.24H87.2719V16.784H94.4399V18.096C94.4399 22.304 92.0399 25.968 87.9119 28.688L86.9519 27.424C90.7919 24.96 92.8399 21.552 92.8399 18.416V18.24Z" fill="#FFFDF0"/>
</svg>
