<svg width="141" height="46" viewBox="0 0 141 46" fill="none" xmlns="http://www.w3.org/2000/svg">
<rect width="141" height="46" rx="6" fill="#2F9C89"/>
<path d="M52.6523 18.864H54.9563V20.336H52.6523V23.952H51.0523V15.616H52.6523V18.864ZM48.7003 23.52L44.7803 20.752C44.0283 21.888 42.8763 22.896 41.3083 23.84L40.4603 22.576C43.0843 20.992 44.2682 19.248 44.2682 17.12V16.096H45.8203V17.12C45.8203 17.936 45.6923 18.688 45.4523 19.392L49.5803 22.288L48.7003 23.52ZM51.0523 26.336H42.9723V24.88H52.6523V30.624H51.0523V26.336ZM67.3281 30.464V15.616H68.8801V30.464H67.3281ZM61.7441 21.04H64.1121V15.84H65.6321V30.16H64.1121V22.496H61.7441V21.04ZM60.2081 18.24V19.04C60.2081 20.128 60.0961 21.168 59.8881 22.176L63.2481 27.392L61.9841 28.272L59.3281 24.144C58.8001 25.632 58.0001 27.04 56.9761 28.432L55.7601 27.488C57.7121 24.896 58.7361 22.352 58.7361 19.04V18.24H56.2881V16.784H62.7521V18.24H60.2081ZM82.996 21.2H85.3V22.656H82.996V30.464H81.396V15.616H82.996V21.2ZM74.676 15.632H76.292V17.808H79.828V19.232H71.14V17.808H74.676V15.632ZM75.508 20.56C77.556 20.56 79.156 21.92 79.156 24.064V24.928C79.156 27.072 77.556 28.448 75.508 28.448C73.444 28.448 71.828 27.072 71.828 24.928V24.064C71.828 21.92 73.444 20.56 75.508 20.56ZM77.556 24.864V24.128C77.556 22.8 76.66 22 75.508 22C74.34 22 73.428 22.8 73.428 24.128V24.864C73.428 26.208 74.34 27.024 75.508 27.024C76.66 27.024 77.556 26.208 77.556 24.864ZM97.4159 30.464V15.616H98.9999V30.464H97.4159ZM92.8399 18.24H87.2719V16.784H94.4399V18.096C94.4399 22.304 92.0399 25.968 87.9119 28.688L86.9519 27.424C90.7919 24.96 92.8399 21.552 92.8399 18.416V18.24Z" fill="#FFFDF0"/>
</svg>
