<svg width="30" height="30" viewBox="0 0 30 30" fill="none" xmlns="http://www.w3.org/2000/svg">
<path d="M5.99976 23.75C5.44747 23.75 4.99976 23.3023 4.99976 22.75V22.25C4.99976 21.6977 5.44747 21.25 5.99976 21.25H6.49976C7.05204 21.25 7.49976 20.8023 7.49976 20.25V12.5C7.49976 10.7708 8.02059 9.23438 9.06226 7.89062C9.94361 6.75367 11.0487 5.94857 12.3775 5.47531C12.8097 5.32135 13.1248 4.92809 13.1248 4.46922V4.375C13.1248 3.85417 13.307 3.41146 13.6716 3.04688C14.0362 2.68229 14.4789 2.5 14.9998 2.5C15.5206 2.5 15.9633 2.68229 16.3279 3.04688C16.6925 3.41146 16.8748 3.85417 16.8748 4.375V4.46922C16.8748 4.92809 17.1898 5.32135 17.622 5.47531C18.9508 5.94857 20.0559 6.75367 20.9373 7.89062C21.9789 9.23438 22.4998 10.7708 22.4998 12.5V20.25C22.4998 20.8023 22.9475 21.25 23.4998 21.25H23.9998C24.552 21.25 24.9998 21.6977 24.9998 22.25V22.75C24.9998 23.3023 24.552 23.75 23.9998 23.75H5.99976ZM14.9998 27.5C14.3123 27.5 13.7237 27.2552 13.2341 26.7656C12.9942 26.5257 12.8131 26.2621 12.6908 25.9746C12.4745 25.4665 12.9475 25 13.4998 25H16.4998C17.052 25 17.5251 25.4665 17.3087 25.9747C17.1864 26.2621 17.0053 26.5257 16.7654 26.7656C16.2758 27.2552 15.6873 27.5 14.9998 27.5ZM9.99976 20.25C9.99976 20.8023 10.4475 21.25 10.9998 21.25H18.9998C19.552 21.25 19.9998 20.8023 19.9998 20.25V12.5C19.9998 11.125 19.5102 9.94792 18.531 8.96875C17.5518 7.98958 16.3748 7.5 14.9998 7.5C13.6248 7.5 12.4477 7.98958 11.4685 8.96875C10.4893 9.94792 9.99976 11.125 9.99976 12.5V20.25Z" fill="#FFFDF0"/>
</svg>
