<svg width="48" height="52" viewBox="0 0 48 52" fill="none" xmlns="http://www.w3.org/2000/svg">
<path d="M6.01615 3C6.01615 1.97069 6.85057 1.13627 7.87988 1.13627H44.6C45.6293 1.13627 46.4637 1.97069 46.4637 3V44.187C46.4637 45.2163 45.6293 46.0507 44.6 46.0507H7.87989C6.85057 46.0507 6.01615 45.2163 6.01615 44.187V3Z" fill="#3D3D41" stroke="#FFFDF0" stroke-width="2.27253" stroke-linejoin="round"/>
<path fill-rule="evenodd" clip-rule="evenodd" d="M1.13627 8.53906C1.76381 8.53906 2.27253 9.04779 2.27253 9.67533V48.5911C2.27253 49.2186 2.78125 49.7273 3.40879 49.7273H39.8381C40.4657 49.7273 40.9744 50.2361 40.9744 50.8636C40.9744 51.4911 40.4657 51.9999 39.8381 51.9999H3.40879C1.52616 51.9999 0 50.4737 0 48.5911V9.67533C0 9.04779 0.508723 8.53906 1.13627 8.53906Z" fill="#FFFDF0"/>
<path d="M26.2391 39.2562C24.4053 39.2562 22.682 38.9082 21.0691 38.2123C19.4562 37.5163 18.0533 36.5718 16.8602 35.3787C15.6671 34.1856 14.7226 32.7826 14.0266 31.1698C13.3306 29.5569 12.9827 27.8336 12.9827 25.9998C12.9827 24.3427 13.303 22.7188 13.9438 21.128C14.5845 19.5373 15.4793 18.1177 16.6282 16.8694C17.7771 15.6211 19.158 14.6158 20.7708 13.8536C22.3837 13.0913 24.1512 12.7102 26.0734 12.7102C26.5374 12.7102 27.0124 12.7323 27.4985 12.7765C27.9845 12.8207 28.4816 12.898 28.9898 13.0085C28.791 14.0027 28.8572 14.9417 29.1887 15.8255C29.5201 16.7092 30.0172 17.4439 30.68 18.0293C31.3428 18.6148 32.1327 19.0181 33.0496 19.239C33.9665 19.4599 34.911 19.4047 35.8832 19.0733C35.3087 20.3768 35.3916 21.6252 36.1317 22.8182C36.8719 24.0113 37.971 24.6299 39.4292 24.6741C39.4513 24.9172 39.4679 25.1436 39.479 25.3535C39.49 25.5634 39.4955 25.7899 39.4955 26.0329C39.4955 27.8446 39.1475 29.5514 38.4516 31.1532C37.7556 32.755 36.8111 34.158 35.618 35.3621C34.4249 36.5663 33.022 37.5163 31.4091 38.2123C29.7962 38.9082 28.0729 39.2562 26.2391 39.2562ZM24.2506 23.3485C24.803 23.3485 25.2725 23.1552 25.6591 22.7685C26.0458 22.3819 26.2391 21.9124 26.2391 21.36C26.2391 20.8077 26.0458 20.3382 25.6591 19.9515C25.2725 19.5649 24.803 19.3716 24.2506 19.3716C23.6983 19.3716 23.2288 19.5649 22.8421 19.9515C22.4555 20.3382 22.2622 20.8077 22.2622 21.36C22.2622 21.9124 22.4555 22.3819 22.8421 22.7685C23.2288 23.1552 23.6983 23.3485 24.2506 23.3485ZM21.5993 29.9767C22.1517 29.9767 22.6212 29.7834 23.0078 29.3967C23.3945 29.0101 23.5878 28.5406 23.5878 27.9882C23.5878 27.4359 23.3945 26.9664 23.0078 26.5797C22.6212 26.1931 22.1517 25.9998 21.5993 25.9998C21.047 25.9998 20.5775 26.1931 20.1909 26.5797C19.8042 26.9664 19.6109 27.4359 19.6109 27.9882C19.6109 28.5406 19.8042 29.0101 20.1909 29.3967C20.5775 29.7834 21.047 29.9767 21.5993 29.9767ZM30.216 31.3023C30.5916 31.3023 30.9065 31.1753 31.1605 30.9212C31.4146 30.6671 31.5417 30.3523 31.5417 29.9767C31.5417 29.6011 31.4146 29.2863 31.1605 29.0322C30.9065 28.7781 30.5916 28.6511 30.216 28.6511C29.8404 28.6511 29.5256 28.7781 29.2715 29.0322C29.0174 29.2863 28.8904 29.6011 28.8904 29.9767C28.8904 30.3523 29.0174 30.6671 29.2715 30.9212C29.5256 31.1753 29.8404 31.3023 30.216 31.3023ZM26.2391 36.6049C28.9346 36.6049 31.3263 35.677 33.4141 33.8211C35.502 31.9652 36.6454 29.6011 36.8442 26.7289C35.7395 26.2428 34.8723 25.58 34.2427 24.7404C33.613 23.9008 33.1877 22.9618 32.9667 21.9234C31.2655 21.6804 29.8073 20.9513 28.5921 19.7361C27.3769 18.5209 26.6257 17.0627 26.3385 15.3615C24.571 15.3173 23.0189 15.6377 21.6822 16.3226C20.3455 17.0075 19.2298 17.8857 18.335 18.9573C17.4401 20.0289 16.7663 21.1943 16.3133 22.4537C15.8604 23.713 15.634 24.8951 15.634 25.9998C15.634 28.9383 16.6668 31.4404 18.7326 33.5062C20.7984 35.572 23.3006 36.6049 26.2391 36.6049Z" fill="#FFFDF0"/>
<path fill-rule="evenodd" clip-rule="evenodd" d="M36.149 1.08545V13.3013L39.2511 11.231L42.3531 13.3013V1.08545H42.3529H36.1493H36.149Z" fill="#FFFDF0"/>
</svg>
