<svg width="25" height="24" viewBox="0 0 25 24" fill="none" xmlns="http://www.w3.org/2000/svg">
<g id="share_FILL0_wght400_GRAD0_opsz24 4">
<path id="Vector" d="M13.2845 17.5809C13.3894 17.6855 13.4726 17.8096 13.5294 17.9464C13.5862 18.0831 13.6154 18.2297 13.6154 18.3778C13.6154 18.5259 13.5862 18.6725 13.5294 18.8092C13.4726 18.946 13.3894 19.0702 13.2845 19.1747L12.7276 19.7316C11.6724 20.7868 10.2412 21.3796 8.74887 21.3796C7.25655 21.3796 5.82535 20.7868 4.77012 19.7316C3.71489 18.6763 3.12207 17.2451 3.12207 15.7528C3.12207 14.2605 3.71489 12.8293 4.77012 11.7741L7.03137 9.51375C8.04526 8.49735 9.40941 7.90708 10.8444 7.86386C12.2794 7.82063 13.6766 8.32772 14.7498 9.28125C14.8606 9.37974 14.9509 9.49909 15.0156 9.63249C15.0803 9.76588 15.1181 9.91071 15.1268 10.0587C15.1355 10.2067 15.1149 10.355 15.0663 10.495C15.0178 10.6351 14.9421 10.7642 14.8436 10.875C14.7451 10.9858 14.6257 11.0761 14.4923 11.1408C14.3589 11.2055 14.2141 11.2432 14.0661 11.2519C13.9181 11.2607 13.7698 11.2401 13.6298 11.1915C13.4897 11.1429 13.3606 11.0672 13.2498 10.9687C12.6062 10.3972 11.7686 10.0931 10.9082 10.1187C10.0479 10.1443 9.2298 10.4977 8.62137 11.1066L6.362 13.3641C5.72896 13.9971 5.37332 14.8557 5.37332 15.7509C5.37332 16.6462 5.72896 17.5048 6.362 18.1378C6.99504 18.7708 7.85362 19.1265 8.74887 19.1265C9.64412 19.1265 10.5027 18.7708 11.1357 18.1378L11.6926 17.5809C11.7971 17.4763 11.9212 17.3934 12.0578 17.3367C12.1943 17.2801 12.3407 17.251 12.4886 17.251C12.6364 17.251 12.7828 17.2801 12.9194 17.3367C13.0559 17.3934 13.18 17.4763 13.2845 17.5809ZM20.2295 4.26844C19.1734 3.21483 17.7425 2.62313 16.2507 2.62313C14.759 2.62313 13.3281 3.21483 12.272 4.26844L11.7151 4.82531C11.5038 5.03666 11.385 5.3233 11.385 5.62219C11.385 5.92107 11.5038 6.20772 11.7151 6.41906C11.9265 6.63041 12.2131 6.74914 12.512 6.74914C12.8109 6.74914 13.0975 6.63041 13.3089 6.41906L13.8657 5.86219C14.4988 5.22915 15.3574 4.87351 16.2526 4.87351C17.1479 4.87351 18.0065 5.22915 18.6395 5.86219C19.2725 6.49522 19.6282 7.35381 19.6282 8.24906C19.6282 9.14431 19.2725 10.0029 18.6395 10.6359L16.3792 12.8972C15.7702 13.5058 14.9517 13.8586 14.0911 13.8836C13.2305 13.9085 12.393 13.6036 11.7498 13.0312C11.639 12.9328 11.5099 12.8571 11.3698 12.8085C11.2298 12.7599 11.0815 12.7393 10.9335 12.748C10.7855 12.7568 10.6407 12.7945 10.5073 12.8592C10.3739 12.9239 10.2546 13.0142 10.1561 13.125C10.0576 13.2358 9.98187 13.3649 9.93327 13.505C9.88468 13.645 9.86415 13.7933 9.87286 13.9413C9.88156 14.0893 9.91933 14.2341 9.98401 14.3675C10.0487 14.5009 10.139 14.6203 10.2498 14.7187C11.3223 15.6721 12.7186 16.1795 14.1529 16.1371C15.5872 16.0948 16.9511 15.5059 17.9654 14.4909L20.2267 12.2306C21.2815 11.1748 21.8743 9.74352 21.8748 8.25105C21.8753 6.75858 21.2836 5.32689 20.2295 4.27031V4.26844Z" fill="#C6C6C7"/>
</g>
</svg>
