<svg width="32" height="32" viewBox="0 0 32 32" fill="none" xmlns="http://www.w3.org/2000/svg">
<g clip-path="url(#clip0_2406_2274)">
<path d="M20 4C20.7072 4 21.3855 4.28095 21.8856 4.78105C22.3857 5.28115 22.6666 5.95942 22.6666 6.66667V12H25.3333C26.0405 12 26.7188 12.281 27.2189 12.781C27.719 13.2811 28 13.9594 28 14.6667V25.3333C28.3536 25.3333 28.6927 25.4738 28.9428 25.7239C29.1928 25.9739 29.3333 26.313 29.3333 26.6667C29.3333 27.0203 29.1928 27.3594 28.9428 27.6095C28.6927 27.8595 28.3536 28 28 28H3.99996C3.64634 28 3.3072 27.8595 3.05715 27.6095C2.8071 27.3594 2.66663 27.0203 2.66663 26.6667C2.66663 26.313 2.8071 25.9739 3.05715 25.7239C3.3072 25.4738 3.64634 25.3333 3.99996 25.3333V12C3.99996 11.2928 4.28091 10.6145 4.78101 10.1144C5.2811 9.61428 5.95938 9.33333 6.66663 9.33333H9.33329V6.66667C9.33329 5.95942 9.61424 5.28115 10.1143 4.78105C10.6144 4.28095 11.2927 4 12 4H20ZM9.33329 12H6.66663V25.3333H9.33329V12ZM25.3333 14.6667H22.6666V25.3333H25.3333V14.6667ZM20 6.66667H12V25.3333H20V6.66667ZM17.3333 20V22.6667H14.6666V20H17.3333ZM17.3333 14.6667V17.3333H14.6666V14.6667H17.3333ZM17.3333 9.33333V12H14.6666V9.33333H17.3333Z" fill="#C6C6C7"/>
</g>
<defs>
<clipPath id="clip0_2406_2274">
<rect width="32" height="32" fill="white"/>
</clipPath>
</defs>
</svg>
