<svg width="32" height="32" viewBox="0 0 32 32" fill="none" xmlns="http://www.w3.org/2000/svg">
<g id="mingcute:baby-line" clip-path="url(#clip0_2406_2286)">
<g id="Group">
<path id="Vector" d="M16 2.66675C23.364 2.66675 29.3333 8.63608 29.3333 16.0001C29.3333 23.3641 23.364 29.3334 16 29.3334C8.63596 29.3334 2.66663 23.3641 2.66663 16.0001C2.66663 8.63608 8.63596 2.66675 16 2.66675ZM16 5.33341C13.3463 5.33486 10.7884 6.3254 8.82594 8.1116C6.86344 9.8978 5.6372 12.3514 5.38671 14.9932C5.13622 17.635 5.87946 20.2754 7.47128 22.3986C9.06311 24.5218 11.3892 25.9754 13.9953 26.4756C16.6014 26.9757 19.3004 26.4865 21.5651 25.1034C23.8299 23.7204 25.4978 21.5428 26.2431 18.9959C26.9884 16.4491 26.7576 13.7159 25.5958 11.3301C24.434 8.94423 22.4246 7.07715 19.96 6.09342C20.0775 6.90392 19.9435 7.73098 19.5759 8.46286C19.2083 9.19473 18.625 9.79614 17.9046 10.1858C17.1843 10.5755 16.3617 10.7347 15.548 10.6419C14.7343 10.549 13.9687 10.2087 13.3546 9.66675C13.0996 9.44258 12.9397 9.12957 12.9076 8.79156C12.8754 8.45355 12.9734 8.116 13.1816 7.84778C13.3898 7.57955 13.6925 7.40086 14.0279 7.34814C14.3633 7.29542 14.7062 7.37265 14.9866 7.56408L15.1186 7.66675C15.2804 7.80946 15.4745 7.91077 15.6841 7.96198C15.8937 8.01319 16.1126 8.01277 16.322 7.96076C16.5314 7.90875 16.725 7.8067 16.8863 7.66337C17.0475 7.52005 17.1716 7.33972 17.2479 7.13788C17.3241 6.93604 17.3502 6.71871 17.324 6.50455C17.2977 6.2904 17.2199 6.08581 17.0972 5.90835C16.9745 5.73089 16.8105 5.58587 16.6194 5.48573C16.4283 5.38559 16.2157 5.33332 16 5.33341ZM19.52 20.3094C19.7915 20.5358 19.9619 20.8607 19.9939 21.2127C20.0259 21.5648 19.9168 21.9151 19.6906 22.1867C18.7946 23.2627 17.4986 24.0001 16 24.0001C14.5013 24.0001 13.2053 23.2627 12.3093 22.1867C12.0929 21.9141 11.9918 21.5676 12.0275 21.2214C12.0631 20.8751 12.2328 20.5565 12.5002 20.3337C12.7676 20.1109 13.1115 20.0014 13.4585 20.0288C13.8056 20.0561 14.1281 20.2181 14.3573 20.4801C14.836 21.0534 15.4213 21.3334 16 21.3334C16.5786 21.3334 17.164 21.0534 17.6426 20.4801C17.869 20.2086 18.1939 20.0381 18.546 20.0061C18.898 19.9741 19.2483 20.0832 19.52 20.3094ZM11.3333 13.3334C11.8637 13.3334 12.3724 13.5441 12.7475 13.9192C13.1226 14.2943 13.3333 14.803 13.3333 15.3334C13.3333 15.8638 13.1226 16.3726 12.7475 16.7476C12.3724 17.1227 11.8637 17.3334 11.3333 17.3334C10.8029 17.3334 10.2942 17.1227 9.91908 16.7476C9.54401 16.3726 9.33329 15.8638 9.33329 15.3334C9.33329 14.803 9.54401 14.2943 9.91908 13.9192C10.2942 13.5441 10.8029 13.3334 11.3333 13.3334ZM20.6666 13.3334C21.1971 13.3334 21.7058 13.5441 22.0808 13.9192C22.4559 14.2943 22.6666 14.803 22.6666 15.3334C22.6666 15.8638 22.4559 16.3726 22.0808 16.7476C21.7058 17.1227 21.1971 17.3334 20.6666 17.3334C20.1362 17.3334 19.6275 17.1227 19.2524 16.7476C18.8773 16.3726 18.6666 15.8638 18.6666 15.3334C18.6666 14.803 18.8773 14.2943 19.2524 13.9192C19.6275 13.5441 20.1362 13.3334 20.6666 13.3334Z" fill="#C6C6C7"/>
</g>
</g>
<defs>
<clipPath id="clip0_2406_2286">
<rect width="32" height="32" fill="white"/>
</clipPath>
</defs>
</svg>
